$MeshFormat
2.2 0 8
$EndMeshFormat
$Nodes
1085
1 0 0 0
2 1 0 0
3 3 0 0
4 4 0 0
5 4 2 0
6 0 2 0
7 0.08333333333317341 0 0
8 0.1666666666663218 0 0
9 0.2499999999994123 0 0
10 0.3333333333325029 0 0
11 0.416666666665593 0 0
12 0.499999999998694 0 0
13 0.583333333332236 0 0
14 0.6666666666657889 0 0
15 0.7499999999993416 0 0
16 0.8333333333328944 0 0
17 0.9166666666664472 0 0
18 3.083333333333333 0 0
19 3.166666666666667 0 0
20 3.250000000000001 0 0
21 3.333333333333334 0 0
22 3.416666666666668 0 0
23 3.500000000000001 0 0
24 3.583333333333334 0 0
25 3.666666666666667 0 0
26 3.75 0 0
27 3.833333333333334 0 0
28 3.916666666666667 0 0
29 4 0.08695652173895869 0
30 4 0.17391304347793 0
31 4 0.260869565216911 0
32 4 0.3478260869557897 0
33 4 0.4347826086946668 0
34 4 0.5217391304335439 0
35 4 0.6086956521724209 0
36 4 0.6956521739112981 0
37 4 0.7826086956501748 0
38 4 0.8695652173890515 0
39 4 0.956521739127928 0
40 4 1.043478260867046 0
41 4 1.130434782606406 0
42 4 1.217391304345765 0
43 4 1.304347826085124 0
44 4 1.391304347824484 0
45 4 1.478260869563843 0
46 4 1.565217391303203 0
47 4 1.652173913042562 0
48 4 1.739130434781922 0
49 4 1.826086956521281 0
50 4 1.91304347826064 0
51 3.911111111110741 2 0
52 3.822222222221482 2 0
53 3.733333333332222 2 0
54 3.644444444442963 2 0
55 3.555555555553704 2 0
56 3.466666666664815 2 0
57 3.377777777776543 2 0
58 3.288888888888271 2 0
59 3.199999999999998 2 0
60 3.111111111111726 2 0
61 3.022222222223454 2 0
62 2.933333333335181 2 0
63 2.844444444446909 2 0
64 2.755555555558637 2 0
65 2.666666666670364 2 0
66 2.577777777782092 2 0
67 2.48888888889382 2 0
68 2.400000000005548 2 0
69 2.311111111117277 2 0
70 2.222222222229004 2 0
71 2.133333333340733 2 0
72 2.044444444452461 2 0
73 1.955555555563695 2 0
74 1.866666666674436 2 0
75 1.777777777785178 2 0
76 1.688888888895919 2 0
77 1.60000000000666 2 0
78 1.511111111117401 2 0
79 1.422222222228142 2 0
80 1.333333333338883 2 0
81 1.244444444449625 2 0
82 1.155555555560366 2 0
83 1.066666666671106 2 0
84 0.9777777777818475 2 0
85 0.8888888888925885 2 0
86 0.8000000000033296 2 0
87 0.7111111111140707 2 0
88 0.6222222222248122 2 0
89 0.5333333333355532 2 0
90 0.4444444444462943 2 0
91 0.3555555555570353 2 0
92 0.2666666666677764 2 0
93 0.1777777777785174 2 0
94 0.08888888888925894 2 0
95 0 1.913043478260507 0
96 0 1.826086956521015 0
97 0 1.739130434781656 0
98 0 1.652173913043115 0
99 0 1.565217391304588 0
100 0 1.478260869566061 0
101 0 1.391304347827534 0
102 0 1.304347826089006 0
103 0 1.21739130435048 0
104 0 1.130434782611953 0
105 0 1.043478260873426 0
106 0 0.9565217391344163 0
107 0 0.869565217394924 0
108 0 0.7826086956554317 0
109 0 0.6956521739159391 0
110 0 0.6086956521764468 0
111 0 0.5217391304369543 0
112 0 0.434782608697462 0
113 0 0.3478260869579692 0
114 0 0.2608695652184769 0
115 0 0.1739130434789846 0
116 0 0.08695652173949231 0
117 2.996194698074125 0.08715574294906731 0
118 2.984807752943476 0.1736481780567252 0
119 2.965925826132203 0.2588190456879508 0
120 2.939692620486487 0.3420201441483209 0
121 2.906307786503958 0.4226182628830617 0
122 2.866025403045413 0.5000000012800299 0
123 2.819152043231772 0.5735764378609123 0
124 2.766044441759714 0.6427876113064476 0
125 2.707106779405892 0.7071067829672026 0
126 2.642787607622927 0.766044444850554 0
127 2.57357643391666 0.8191520459935673 0
128 2.499999997315387 0.8660254053344005 0
129 2.422618258682786 0.9063077884625782 0
130 2.342020139960191 0.939692622010842 0
131 2.25881904144113 0.965925827270135 0
132 2.173648173817371 0.9848077536909892 0
133 2.087155738554761 0.9961946984585766 0
134 1.999999995608819 1 0
135 1.912844253186606 0.9961946977360397 0
136 1.826351818541345 0.9848077523436246 0
137 1.741180951482292 0.9659258253739716 0
138 1.657979853587104 0.9396926196622494 0
139 1.577381735498853 0.9063077857494319 0
140 1.499999997554005 0.8660254023722431 0
141 1.4264235614191 0.8191520427276313 0
142 1.357212388461787 0.7660444415652397 0
143 1.292893217294281 0.7071067796673758 0
144 1.233955555665437 0.6427876082378615 0
145 1.180847954834809 0.5735764350997047 0
146 1.133974595505971 0.4999999987709537 0
147 1.093692212429109 0.4226182605950149 0
148 1.060307378914771 0.3420201425032934 0
149 1.034074173539237 0.2588190444617472 0
150 1.01519224689143 0.1736481771204328 0
151 1.003805301890706 0.08715574254708541 0
152 3.247802550945565 1.925403745365702 0
153 0.7550154238763214 1.920151366996799 0
154 0.07530655685029804 1.173913043481216 0
155 3.927364057870273 1.173913043476068 0
156 1.209520461017085 0.7222857249683079 0
157 2.791699435116268 0.7262197402306874 0
158 1.107976121683435 1.924858737197963 0
159 2.888888888891045 1.923019964108584 0
160 3.922297695573505 0.8238266455762177 0
161 0.07889519296974866 0.8184969731885724 0
162 1.417764616090262 0.9027621532623864 0
163 2.579808329396073 0.9029908542100249 0
164 3.458333333333335 0.07216878364870297 0
165 0.541666666665465 0.07216878364869296 0
166 1.048622924219546 0.4973380360250332 0
167 2.946684709758613 0.5000139658473445 0
168 1.482708481623665 1.917877497718671 0
169 2.534137758785107 1.910235768265308 0
170 1.859029568225482 1.064581491359029 0
171 2.140263339609388 1.065405872119025 0
172 0.4888611893318676 1.925018299998303 0
173 3.499957944911782 1.915745480329506 0
174 0.07058569342311941 1.440772570295866 0
175 3.927845099240749 1.426733652469835 0
176 0.07938036679715216 0.5696327421250742 0
177 3.927703083667545 0.56585702453199 0
178 1.999984596385957 1.923620303889369 0
179 1.722629285437504 1.929216597663973 0
180 2.266540351885571 1.924057523972651 0
181 0.07549181406901462 0.3009669808461937 0
182 3.911353716113791 0.2988794195633067 0
183 3.023747004646066 0.3238313331469806 0
184 0.9824789322006864 0.3261537149398728 0
185 2.40836830841194 0.9925253343192573 0
186 1.589670833496077 0.9864527846821176 0
187 0.07812236400146984 1.694998542978142 0
188 3.926732298884773 1.685700672436344 0
189 0.2919147168366022 0.07598220011576109 0
190 3.71054872779298 0.0869363897963482 0
191 0.3094510809404332 1.925254819651392 0
192 3.688887097183487 1.92517721601245 0
193 3.065022557018891 1.931234860209278 0
194 1.290624991225718 1.925599054961112 0
195 2.718735224385763 1.926152806623433 0
196 0.9333333333372181 1.923019964107729 0
197 0.07530655685050706 1.000000000003921 0
198 3.924693443149295 0.999999999997487 0
199 0.7139839204447787 0.07001807132842579 0
200 3.295383359242293 0.06656391763076031 0
201 3.067275504840632 0.1482219377257105 0
202 0.9316098814011331 0.1351669801004495 0
203 0.07301202620620255 0.1340176759576999 0
204 3.932398123974646 0.1267188917498557 0
205 0.1369967757558166 1.925177974570258 0
206 3.8696147884251 1.922182620479748 0
207 3.048296529971237 0.2363892135790822 0
208 3.108306232586506 0.3001462734022033 0
209 3.08364658582566 0.3867641565425012 0
210 3.167918831985676 0.3671447973592253 0
211 3.144566279493685 0.4482270562564543 0
212 3.227167354639094 0.4309787973952337 0
213 3.203748000426057 0.5115956633552206 0
214 3.286113420367564 0.4946354197148257 0
215 3.26033140033126 0.5774067676517557 0
216 3.344606232671966 0.5587048792926455 0
217 3.318733413020426 0.6415870903097107 0
218 3.403825255111844 0.6225987374129454 0
219 3.3776337151442 0.7055384412360183 0
220 3.292792401433097 0.7245803957398761 0
221 3.351956685199671 0.7886115957234182 0
222 3.269399028836217 0.808370513663573 0
223 3.326451719685016 0.8717341731273273 0
224 3.24395083694952 0.8915753336307667 0
225 3.300560203414312 0.9548145492052738 0
226 3.215589049968679 0.9739506127127533 0
227 3.274326593578336 1.037897179276426 0
228 3.189094227653101 1.056997090959151 0
229 3.24829668207615 1.12119171497546 0
230 3.162922800021439 1.140332634810637 0
231 3.222220486382402 1.204625858555924 0
232 3.136862774870268 1.223877406942654 0
233 3.307607523764871 1.185408240614748 0
234 3.281583992421057 1.268937768063854 0
235 3.366957120081674 1.249667666750901 0
236 3.340947115656812 1.333285012425602 0
237 3.431379654006613 0.5397599377513449 0
238 3.077505667779743 1.159483259264417 0
239 3.051431628875538 1.243104290610002 0
240 3.385302663851229 0.935638009594342 0
241 3.426356323929553 1.313997860755267 0
242 3.400386507021349 1.397690393041295 0
243 3.314835676378586 1.41699797372112 0
244 2.992076005648248 1.178691437508863 0
245 2.965952779737807 1.262342416486754 0
246 3.463123162204608 0.6865020153490446 0
247 2.906574601006176 1.197885700506125 0
248 2.880397705585112 1.281582728664253 0
249 2.939866203369117 1.34611260071518 0
250 2.85420680173994 1.365383905156779 0
251 2.794717814236663 1.30078250722989 0
252 2.768424110567919 1.384342360652289 0
253 2.913749561953953 1.430014304947554 0
254 2.709031272958338 1.319966763251317 0
255 2.682669721553053 1.403543805117272 0
256 2.623265271235875 1.339178788617356 0
257 2.596872564211686 1.422718338744794 0
258 2.537368923195569 1.358376825901479 0
259 2.511095042527747 1.442161196001174 0
260 2.451536240691981 1.377641665839007 0
261 2.425220095803903 1.461234002540213 0
262 2.366429779416984 1.400115385530744 0
263 2.339477267234809 1.480960228448573 0
264 2.280707308297439 1.419977840499641 0
265 2.253598625805403 1.50015567768081 0
266 2.194277381589965 1.43679732562082 0
267 2.167656741892057 1.51924264546983 0
268 2.108266710099135 1.455617056740405 0
269 3.374429401792254 1.481533652022079 0
270 3.288678151062601 1.50082254803957 0
271 3.46000105314456 1.462087185777071 0
272 3.452338299936664 1.230391846083472 0
273 2.081700529887414 1.538369090720517 0
274 2.022158009074232 1.474045497816842 0
275 1.995717008241053 1.55748864478963 0
276 1.936129915598522 1.493153400608068 0
277 2.655170640608253 1.486915179672955 0
278 2.93270656336811 1.114268956787011 0
279 3.157305264236242 0.9118792239833609 0
280 1.909830953236515 1.577229080583111 0
281 1.850148527300955 1.512469708726257 0
282 2.396971056886069 1.545078117401145 0
283 3.348390329101258 1.565500349164199 0
284 3.262412133924809 1.58485340285999 0
285 3.313257543560619 0.4124036979847021 0
286 3.511691326592953 1.294658916937336 0
287 3.537658765969964 1.211162979549046 0
288 3.166753032816344 0.5933442191974745 0
289 2.735407496885248 1.236196174779433 0
290 1.823832482044544 1.596613334477432 0
291 1.764128551018072 1.531745406111936 0
292 1.790329268241473 1.447634151253866 0
293 1.704429815052074 1.466902721836654 0
294 1.678112505590987 1.550977341427319 0
295 1.618477632628926 1.486104369542932 0
296 1.64481497157947 1.402071538404388 0
297 1.558902237376103 1.421236170713018 0
298 1.532499632185574 1.505294121327467 0
299 1.472928264839011 1.440392015557421 0
300 1.446482323173674 1.524461940612353 0
301 1.386906281502367 1.459536964859334 0
302 1.413447519768817 1.375522797868789 0
303 1.327378649445515 1.394656811398399 0
304 1.30081959333492 1.478626460428416 0
305 1.24140632211472 1.41372056149776 0
306 1.267844407329031 1.329806362520089 0
307 1.181665914448869 1.348865333244405 0
308 1.155292394275796 1.432721215770754 0
309 1.096075968941957 1.367851997974785 0
310 1.121797825897581 1.283944257159475 0
311 1.036715064905867 1.303088495495384 0
312 1.010534835576414 1.386382471657414 0
313 0.9511268023375696 1.321763200096693 0
314 0.9774420652130495 1.238496212983348 0
315 0.8919329072708693 1.257314383573071 0
316 0.8655984670303454 1.340399608592728 0
317 0.8063375056234225 1.27594904106986 0
318 0.8328056871034739 1.192651303631396 0
319 0.7472595946530012 1.211534477001191 0
320 0.7736933620291376 1.128090853364679 0
321 0.7208666833048341 1.294578129998762 0
322 0.6882767237309914 1.146900970290388 0
323 0.7146631005011586 1.063551704816091 0
324 0.6293149141870847 1.082365160924957 0
325 0.6557225477182205 0.9990734862352848 0
326 0.7409962463695414 0.980252716224344 0
327 0.6820145466803368 0.9158980050315538 0
328 0.5968419889972405 0.9347110416199313 0
329 0.6232035551907171 0.8514637849516414 0
330 0.7667088644801379 0.8969472079211662 0
331 0.5381681477982135 0.8703703327142847 0
332 0.5643165623202997 0.7874341868056361 0
333 0.4794401301791913 0.806239047865967 0
334 0.5058176062848065 0.7234410969328137 0
335 0.5902960833645206 0.7047896720004904 0
336 0.5320365992883649 0.6410142611561424 0
337 0.6163105608394822 0.6223951917187234 0
338 0.5580120809550858 0.5588777941221508 0
339 0.4528990952458967 0.8892348480780347 0
340 0.4740171559610614 0.5773910295419149 0
341 0.4998520644491305 0.4955228855401775 0
342 0.5833451836854142 0.4768749510786863 0
343 0.4212601194862259 0.7421483963327525 0
344 0.8585041438809158 1.109019548703431 0
345 0.6029010503716298 1.165655055233868 0
346 0.4161002013839665 0.5140099904666183 0
347 0.4418825023850499 0.4322649186686741 0
348 3.596956135272991 1.275338134350106 0
349 2.04748690467634 1.390593977571873 0
350 3.622851485177389 1.191902304889786 0
351 1.585288330818762 1.337276444696585 0
352 1.506123211323265 1.589429418262509 0
353 1.419999199028819 1.608621993705092 0
354 2.138834814990116 1.602885252641935 0
355 2.395823702319187 1.318423892924704 0
356 2.563900764046998 1.274601528517792 0
357 0.3582429076607816 0.4506943170270153 0
358 0.3841799191538098 0.3691342249124879 0
359 0.4674382260252213 0.3507763075279138 0
360 1.671073768585851 1.318131096356411 0
361 3.322219027912269 1.649574928243829 0
362 3.408199940793022 1.630148662871547 0
363 3.236223267360869 1.668996557420909 0
364 3.176380855315991 1.604195038692038 0
365 2.222733943542895 1.346489186955855 0
366 0.3322662141163017 0.5325335391541117 0
367 3.682114777155104 1.256048176886958 0
368 3.65623312984948 1.339432344092545 0
369 1.883582830508788 1.661527898557055 0
370 3.563626513211789 1.127787107496709 0
371 3.648710912729873 1.108591506962016 0
372 3.589587647766393 1.04454028212602 0
373 0.6747226545723654 0.686047496812097 0
374 0.7007178136909055 0.6035212461825845 0
375 0.7592429752658756 0.6673000068144807 0
376 0.7852561630204825 0.5845787368579098 0
377 0.8438777636569578 0.6485010370661992 0
378 0.543999607748349 1.101150499145298 0
379 0.5175867435472028 1.1843983518265 0
380 0.4587205836398979 1.11993288211462 0
381 0.4323120997456085 1.203137520997268 0
382 0.4911985602729102 1.267651548990922 0
383 0.40586416701116 1.286390463909183 0
384 0.4647884567694614 1.350959137910886 0
385 0.3793906242112051 1.369733095398036 0
386 0.4383737606100262 1.434368620286349 0
387 0.3559435076375422 1.452324159611597 0
388 0.4136034748119933 1.518150187509424 0
389 0.4978488519894824 1.499079378730558 0
390 0.4713920484966228 1.582781203803042 0
391 0.5569653915503336 1.563849139846701 0
392 0.385836136218261 1.60111604385041 0
393 0.3734955072580584 1.13868105020845 0
394 0.5303538106864204 1.647690905459595 0
395 0.6162708588848658 1.628789726824308 0
396 3.674544628250301 1.025330106756493 0
397 3.615493883868496 0.9613542878346337 0
398 3.11078188025087 1.30734345788191 0
399 0.3205104696924471 1.305138781142798 0
400 0.6428437139381151 1.544873507644884 0
401 0.7022147094026083 1.609822778477196 0
402 1.797506614949784 1.680829195320092 0
403 1.611575890606612 1.253443059087155 0
404 3.150177635943814 1.688385733630643 0
405 3.090549691434312 1.623605865842515 0
406 0.2743517473702608 0.4690608778669808 0
407 0.4107750735478153 0.288201479512968 0
408 0.3307596615637642 0.3066904123501119 0
409 0.589620662457077 1.71275962347616 0
410 3.700382934923515 0.9421451725750022 0
411 3.641335950968621 0.8782184438198404 0
412 3.062626630937791 1.71028198769391 0
413 3.004634317528105 1.643321922122476 0
414 1.479713531930707 1.673658682621219 0
415 1.39348966867205 1.692867831222737 0
416 3.193844054393089 0.2852336829100519 0
417 3.38204107884799 1.714341797022491 0
418 3.468051295219754 1.694833795910544 0
419 1.854012058689279 1.744852173782164 0
420 1.93865235885747 1.723397166794115 0
421 1.697273712074077 1.234301491754853 0
422 3.11674575553207 1.539355939598112 0
423 0.7287683472804054 1.525903136665902 0
424 0.7882287196022276 1.590856431408012 0
425 0.7616542776341079 1.674894351421094 0
426 0.8477523375054459 1.655890196734334 0
427 0.8743082317428907 1.57182091444037 0
428 0.9331047905614855 1.635399093455809 0
429 0.4931153242274542 0.2696534418842656 0
430 2.977080867264101 1.727542503931226 0
431 2.91833265604611 1.662333644610522 0
432 3.741371548761191 1.320108745405606 0
433 3.715533408106996 1.403516792168527 0
434 3.73042064249137 0.8603640124387186 0
435 3.667915752518751 0.7953830953594038 0
436 3.757032262441453 0.7775788979976809 0
437 3.694027564478786 0.7124864691554699 0
438 0.503572477140758 1.731668914073279 0
439 3.733716648928791 1.089330971944036 0
440 0.4348629075761645 0.2031225105374561 0
441 0.8211794693713738 1.740051669737962 0
442 2.891570753654962 1.746739737474104 0
443 2.83172787084508 1.681714247673042 0
444 0.8666612422554236 0.5671715721366486 0
445 0.8107038878728642 0.5020755875698983 0
446 0.936381606371682 0.6259263796862335 0
447 0.9038552614881787 0.7119522140168529 0
448 0.9874726440943146 0.6937556864909162 0
449 0.9615634691701969 0.7767032597311575 0
450 3.778757933869338 0.6933684822053034 0
451 3.718854623636079 0.6292700421831675 0
452 0.2482672278990437 0.5510785275064035 0
453 3.634409364022018 0.6484378364904918 0
454 3.660027841004394 0.5655681749782313 0
455 3.744553266104988 0.5465247820232808 0
456 3.685958819685017 0.4829289938038552 0
457 3.770163244733778 0.4640324053730587 0
458 3.711562072749917 0.4007200445456263 0
459 3.627694130377911 0.4194591576108692 0
460 3.653169909809114 0.3376156365165515 0
461 3.569660213665614 0.3562965302667828 0
462 3.595227263594649 0.2747333880677618 0
463 3.511868931636068 0.2934045922816637 0
464 3.678383043457345 0.2560218809588835 0
465 3.486213150964667 0.3749564460410326 0
466 3.428495336597569 0.3119894436004808 0
467 3.5562677511928 0.8974719283977023 0
468 0.5503736049821674 0.3321494006464412 0
469 0.5758781524426435 0.2511902159646809 0
470 0.6332035056705624 0.3136708345632165 0
471 0.3998287283174473 1.055549757172481 0
472 0.314721082975509 1.074298792456956 0
473 0.3410413713979968 0.9912743558051873 0
474 3.504180427541904 1.063644471791727 0
475 2.85904237226658 1.597437582660332 0
476 1.756751799266312 1.298906241671921 0
477 1.525880737273384 1.272541297873923 0
478 1.552154794115049 1.188816960233846 0
479 1.466544392499151 1.20788677530137 0
480 1.492606719393822 1.124433466502125 0
481 1.406669694268248 1.143426261868683 0
482 3.49417332008149 1.610711550378717 0
483 3.553983983565895 1.675300832423661 0
484 3.579804433970742 1.590983660085759 0
485 3.639746864242305 1.655721630123713 0
486 3.618316381902424 1.733803309983169 0
487 3.702773680260256 1.716967029219368 0
488 3.72599549131613 1.63578706118635 0
489 0.8259092003821744 0.9612992149261455 0
490 2.847239946393841 1.133427029094409 0
491 2.873357211870474 1.049856810542415 0
492 2.787942843546564 1.069000000473497 0
493 2.8134404384277 0.9860486793450695 0
494 2.898361574430862 0.9670174841489877 0
495 0.2882237811202495 1.157432626029594 0
496 0.2560091238672794 1.009984539133854 0
497 0.2832972891929433 0.9270175839406392 0
498 1.333748928575501 1.627794972772747 0
499 1.307217391602963 1.712082460006166 0
500 1.247437391693671 1.64696644590115 0
501 1.220921959472128 1.731283394507751 0
502 1.161183410511741 1.666132081481847 0
503 1.145163634568001 1.756807925384245 0
504 3.203388865171016 0.7481305860244539 0
505 1.565840527762254 1.654413843107848 0
506 1.539489082466404 1.738720924058624 0
507 3.63034885570871 1.422833048429981 0
508 0.7350141842496362 1.759023012529644 0
509 2.805363006310631 1.766136936746278 0
510 2.745385364403868 1.701116309519987 0
511 0.55023501465735 1.332058907691196 0
512 0.6585610456817623 0.2328152864156723 0
513 0.7160953207188083 0.2951209537518451 0
514 0.7415728057730552 0.2143130912207947 0
515 0.7992798527542168 0.2768776928797262 0
516 1.625690438836416 1.719434227195066 0
517 1.599243467248658 1.803873224254226 0
518 3.229128787089741 1.436219343556435 0
519 2.728665937915185 1.005113352241762 0
520 2.76354361577047 0.9188288491802685 0
521 2.702543156359997 1.088187448450891 0
522 0.3062469047589235 0.6146267023418432 0
523 0.2221159269828046 0.6333022401326358 0
524 2.999188245745307 1.41049452628997 0
525 0.6692205799346074 1.461164641218054 0
526 0.9590949691068792 1.552409570951854 0
527 0.691650538917855 0.376061756338208 0
528 0.2802676427537594 0.6970079660231874 0
529 1.366484155903628 1.775556212654753 0
530 3.621440296565068 0.197039897416057 0
531 3.766944789770268 1.236719979131698 0
532 3.839450572560502 1.306827037563633 0
533 1.045540251454804 0.7576397233704922 0
534 1.020095538534723 0.8410161165107275 0
535 1.78261929232393 1.215411761958997 0
536 1.842279473393185 1.279708683928622 0
537 1.724403452818063 1.151239647260796 0
538 3.205734763062982 1.753450206224848 0
539 0.890333016588821 0.4894516446121751 0
540 1.770373603306207 1.763706805750803 0
541 1.103514410543179 0.8221825209907352 0
542 1.078797498883809 0.9054098498022243 0
543 1.17331420301633 0.8872436115486102 0
544 1.138140327425752 0.9697653059139955 0
545 1.052853920476541 0.9886972780804103 0
546 1.112104049059734 1.052968690716709 0
547 1.195481958140347 1.035846689870737 0
548 1.171002756460169 1.117632368390557 0
549 1.027507768818309 1.071653206585917 0
550 3.454297581195095 0.2310904826855117 0
551 3.370980854524173 0.2492533430558226 0
552 0.194851936191052 0.7173080717517141 0
553 3.785252852861985 0.9229496595803378 0
554 3.438874441757515 1.778198511409027 0
555 3.352749888841707 1.801084789405238 0
556 0.1942655910137871 0.488746422264825 0
557 0.2170345832408041 0.4056255165623346 0
558 1.257619946211938 1.098741044658428 0
559 1.281293523329789 1.009830468646707 0
560 0.5621544122153678 1.792744393320275 0
561 3.575485322127988 0.5846360628684061 0
562 1.428562564591676 1.056952326591208 0
563 1.828360861288294 1.82409898409294 0
564 3.689681611672176 1.487000316709113 0
565 3.773665009072218 1.467025536014575 0
566 3.792481344628317 0.3808846501292214 0
567 1.379303043187467 1.226970155208241 0
568 1.230712128791349 1.18193967593043 0
569 0.7333945791157764 0.7498658696508764 0
570 1.187818175196101 1.581863182302265 0
571 0.2523972161375131 0.7815639068586839 0
572 3.851426668486193 0.4331262042532984 0
573 0.8996552813933409 1.488144125779424 0
574 2.97290887528602 1.494319173848535 0
575 0.8371059797115339 0.4191413875135036 0
576 0.8766059997276139 0.7953849674311961 0
577 0.7547623259826487 1.442308035446699 0
578 0.9683573927471338 1.006905707419365 0
579 1.072513252293584 0.6748123358382583 0
580 1.102175256401243 1.600027214112124 0
581 2.718411457691492 1.782697497465443 0
582 2.658954794336795 1.7200560052138 0
583 2.632058957431457 1.802057878692477 0
584 2.572609463185426 1.739370488082305 0
585 2.599052250873346 1.655415590164731 0
586 2.512863623822428 1.675226955138501 0
587 2.486261886619374 1.758587775547517 0
588 2.426578654657103 1.694640387790464 0
589 2.399950925368561 1.777953796686046 0
590 2.340180401394019 1.71363411320433 0
591 2.54089038063999 1.590557886231129 0
592 1.197323260764783 1.817073915520978 0
593 2.644054411136011 1.027259064215161 0
594 2.617277555075813 1.107833842914843 0
595 2.557885253695948 1.042851337784996 0
596 2.531978126400017 1.12541583228406 0
597 1.868259763462914 1.199005353137309 0
598 1.927825653903566 1.260990765609782 0
599 1.95490977177862 1.182836007920986 0
600 2.013386751885796 1.241287579211211 0
601 1.901733732623618 1.344182711396722 0
602 0.2036840999841839 0.9446007908880261 0
603 3.783030746818066 1.699262553883833 0
604 3.807870256420932 1.614828267488064 0
605 3.762437468751024 1.779837179759148 0
606 2.034014600069949 1.15946268032324 0
607 2.101828841142317 1.216324396906272 0
608 0.1403400101758839 0.4353931596947161 0
609 2.316725574571766 1.795248666770635 0
610 2.254432134222463 1.733049257707526 0
611 2.282529078220981 1.648481907987657 0
612 2.380171199876354 1.856602552941461 0
613 2.953936683436494 1.805848733147254 0
614 0.824930426145132 0.1954641878161844 0
615 3.397519944568735 0.1589008367777916 0
616 3.300492367343085 0.1913652962061015 0
617 2.232732029932798 1.832982039988255 0
618 2.168549889045063 1.755489654429525 0
619 2.13655378550061 1.839821679180516 0
620 2.080964417618531 1.771273941655832 0
621 0.6018984600087574 0.1719316616663149 0
622 1.579919248471539 1.112875626889105 0
623 3.41772435118403 1.861993900746 0
624 0.8741371069459297 0.257630595718607 0
625 3.840233495620165 0.7576093464007772 0
626 3.86143876018027 0.6745034854854554 0
627 3.144667574459288 0.2130683593379059 0
628 3.148926644287164 0.1153577789656445 0
629 0.4761617510791751 1.81292572407811 0
630 0.4165016330364218 1.749827438998795 0
631 0.3976240484770028 1.832965703874227 0
632 0.3238719090170063 1.776705877369862 0
633 3.855828756346948 1.754354438960402 0
634 0.1382962837856052 0.6488651088074678 0
635 3.703457784012316 0.1746932412440914 0
636 3.761333543057665 0.237095042877095 0
637 3.777966315425119 0.1562969382968224 0
638 3.843025619551542 0.2240353875624397 0
639 3.074505165355026 0.4756231583347793 0
640 1.512305909157766 1.825077708008533 0
641 1.575602356909836 1.88481205760465 0
642 0.7945259655927193 1.824282822199994 0
643 0.8720978859771589 1.804380962382564 0
644 0.1600827654343018 1.029248366321136 0
645 3.213150058660499 0.1723264178037411 0
646 1.011076149563368 0.4150242938400698 0
647 2.905226572091332 0.5768700989623525 0
648 2.990193114650325 0.5774281116220511 0
649 2.953382955170931 0.6507800125314323 0
650 3.035639927208172 0.6474056637067546 0
651 3.001752384464077 0.7229667307784073 0
652 3.086325285086002 0.721731949570698 0
653 3.044635875826963 0.7965440845718554 0
654 2.951368138699988 0.7927340288518201 0
655 3.007676888048455 0.8707414156302827 0
656 2.720888807034804 0.78876510395962 0
657 2.802933121583789 0.8199929708491211 0
658 1.268634817767997 0.7827485557899339 0
659 1.328991445718199 0.8514941855423219 0
660 2.863941960050758 0.6612734720537344 0
661 2.651003987392597 0.8594324292039824 0
662 2.504279271749902 0.9627684385160192 0
663 2.324352389701911 1.023179670335411 0
664 2.391527841760443 1.079766551755446 0
665 2.3093589101328 1.110145801589865 0
666 2.370019957313569 1.168160172593502 0
667 2.298215565140483 1.198454207659437 0
668 2.225401149364439 1.136824310444393 0
669 2.207965661462636 1.23181732439027 0
670 1.670317769753659 1.016439032798844 0
671 1.756585690705875 1.059581711179748 0
672 1.503805299200417 0.9531811449031136 0
673 1.950200474835461 1.064225712493995 0
674 1.086636935729517 0.5858170343359004 0
675 2.766116618792597 1.848216835164299 0
676 0.1141060458956804 0.7306221346155781 0
677 0.1704975691240327 0.7989032273290333 0
678 3.282688259813166 0.2731428291315402 0
679 2.87742912798444 0.7448528733258227 0
680 3.073491397412341 0.5661015532354187 0
681 3.130303408862235 0.7937862234297278 0
682 1.340324105973743 0.944126315024569 0
683 1.260400781221474 0.9076123399542296 0
684 3.401988948688223 0.3936412040735222 0
685 2.277639663928882 1.275776874310005 0
686 2.23864050067784 1.04771487257497 0
687 0.7034091976140771 1.84294440386974 0
688 0.8750158552063483 0.06463493914070223 0
689 0.9995441720568292 0.5673176950228341 0
690 0.8462059524487313 1.901985611071227 0
691 0.149144317506969 0.3506240434456955 0
692 3.338024854334352 1.885142504133847 0
693 3.255530292603343 1.827560214387577 0
694 3.187748588822665 1.872168903124235 0
695 3.122069831672376 1.768277930260167 0
696 1.345972268245841 1.079328976650721 0
697 1.318424304884443 1.162644193839208 0
698 0.9217761283068919 0.3936479305732434 0
699 2.147441754326716 1.294882833554682 0
700 3.549687445761602 0.6673639504627427 0
701 3.458642162899329 0.4571788958006874 0
702 1.661691450841537 1.864252100082726 0
703 3.926725781478177 0.7310623766776303 0
704 3.831239481244044 0.8456742297734585 0
705 3.899051272126751 0.9113271136480596 0
706 2.10962851050872 1.687555045265096 0
707 2.923883039394739 0.8828497731763232 0
708 3.490676995267501 0.6036326350156205 0
709 3.522807890631954 0.7504329379781645 0
710 0.7510877089299046 0.4388435974965225 0
711 0.3674245772601247 0.9082908084652674 0
712 0.6657738121361912 1.922657268960492 0
713 3.53773667849799 0.2132303548493149 0
714 3.576179674740283 0.1381488430701658 0
715 0.07508066961286336 0.2170000561752643 0
716 0.149256943528661 0.1741048954324557 0
717 0.1391645901520746 0.080684730007511 0
718 0.2193577125624179 0.1303476675008286 0
719 0.2235369802374496 0.2163695307914883 0
720 0.2914392613775815 0.1689901495111925 0
721 0.3704455201906783 0.1260045692100888 0
722 3.749858541093669 1.551070627849117 0
723 3.833841523359977 1.531650507039115 0
724 3.884320756201614 1.605789282949255 0
725 2.627469931013414 1.571040949735151 0
726 1.426284325779776 1.843665068586266 0
727 3.254340224565845 0.349592257855219 0
728 0.5195237876105951 0.1927848301595316 0
729 0.4736138699094067 0.1226274676012937 0
730 3.437148377046571 0.769639507768467 0
731 3.496739973533172 0.8335476509901716 0
732 3.601815965401668 0.5016613130972901 0
733 0.7261591961152442 0.5213012406751178 0
734 0.2237554913158023 1.922965808753287 0
735 0.1805425794271095 1.845968876667198 0
736 0.08260447794401 1.85638581720565 0
737 0.1337909991008268 1.772630747030084 0
738 0.2264664205945036 1.77078897787745 0
739 0.1739427246165424 1.694332548069159 0
740 0.1270145482048587 1.612413911420567 0
741 0.2139598665315846 1.61369988457138 0
742 0.1649571365758093 1.541017710295543 0
743 0.2499809830302144 1.538138258826419 0
744 0.1989412284898185 1.472662686551191 0
745 0.265287067043515 1.692485828243822 0
746 0.2665449324552082 1.851083973467263 0
747 0.356025711771461 1.683670326598249 0
748 3.778244705727527 1.925756051004599 0
749 3.372664660365719 0.4760540057696213 0
750 0.2372159097122493 0.310015860968346 0
751 0.3974419828358632 1.919020905224047 0
752 1.379093456681266 1.919419991025509 0
753 3.519722834016551 1.526405071877547 0
754 0.4479128333632958 0.659639865994549 0
755 3.664982372568407 1.57108807058684 0
756 1.128947658165647 1.516135797660198 0
757 3.598163523292469 1.92226854320406 0
758 3.555691500931473 1.846319488552027 0
759 3.644357474456606 1.849234811098425 0
760 2.591034492710972 1.190824533876939 0
761 3.925836170771041 0.3916265402114077 0
762 0.6421361171729685 0.5402122678603736 0
763 2.478777733047183 1.295984079452524 0
764 2.505682008074049 1.209644908575065 0
765 2.998299329198344 0.4235957316763031 0
766 3.392990938919154 1.166163764017316 0
767 3.333518288282342 1.10199181562579 0
768 3.418662201670872 1.082779571759685 0
769 2.686093731841768 1.636106796845986 0
770 2.772398948101357 1.616850273858852 0
771 2.799805239577457 1.53267172345161 0
772 0.5834529480235109 1.480073887629268 0
773 3.707882863549261 1.172638440308236 0
774 3.790329929006427 1.152753722122251 0
775 3.811037595344717 1.068006276793984 0
776 2.368732237896804 1.629455243574166 0
777 1.638805530450156 1.173615735190184 0
778 0.5250865719497653 0.4136379501172938 0
779 0.5704292544376771 1.017937890081233 0
780 0.4851254348481499 1.036751096294417 0
781 1.961847881218434 1.409228567203793 0
782 1.021726543903578 1.92336809902996 0
783 1.064473261490495 1.847427957616799 0
784 0.9796434743026827 1.847310617933136 0
785 1.02227768324245 1.769404412659915 0
786 2.977745723445232 1.925421316272527 0
787 2.886740482121063 1.51352656219108 0
788 2.631039518349595 1.925125559789392 0
789 1.499447851429456 1.356418261497461 0
790 2.958930371087517 1.032196342586989 0
791 3.018151002376504 1.095327893719048 0
792 3.044806515868245 1.013420904520168 0
793 3.103750758287063 1.076399989283735 0
794 1.197531388262266 1.912342975329398 0
795 3.797562092283787 1.387131367262441 0
796 3.800601645520138 0.6129898956462028 0
797 1.353080397805551 1.310659336331548 0
798 0.4263125559774248 0.97246189481407 0
799 0.3945346298522516 0.825135549951467 0
800 0.8143044726333267 1.507156116156367 0
801 1.274196118878202 1.562729568474307 0
802 1.074632154759691 1.698425430052148 0
803 1.062062009357717 1.219343608949242 0
804 3.582240117661426 0.8143927293067025 0
805 3.47146840362812 0.9170104080277195 0
806 0.297398119365019 1.385944257041839 0
807 0.2381327940944457 1.32126643578183 0
808 0.2621834964342257 1.24020517242149 0
809 0.1804673217197396 1.259970338296308 0
810 0.1583857199620031 1.337406980027426 0
811 0.08911247395409526 1.264254942078585 0
812 0.2084433350183162 1.177644520165468 0
813 1.822222222229808 1.92301996410773 0
814 1.913820342356 1.926522388147204 0
815 1.956802038245883 1.858724127534625 0
816 2.089415260612137 1.922663755591995 0
817 2.177730959540549 1.923046994634539 0
818 0.3002974547836116 0.3852035349478793 0
819 1.730596371811771 1.382829786071621 0
820 2.442360900321428 1.923294712006366 0
821 3.478242857875058 1.146988290116326 0
822 3.485789620487648 1.378298696969236 0
823 0.3470982535436248 1.221830935784797 0
824 0.9177469525411699 1.173782045189207 0
825 1.876061322188074 1.428333584349198 0
826 0.6618264232407178 1.230100736199293 0
827 0.229661155320254 1.092932952266018 0
828 2.546350612636968 1.824408859567361 0
829 2.82102339866301 1.217068139518262 0
830 3.757729595595526 1.005620522987849 0
831 0.7995476015203359 1.044576497470113 0
832 0.07619252546915714 1.084327044184394 0
833 3.923713037676978 1.261282767128526 0
834 0.07530655685085591 0.9130434782646702 0
835 3.928535618135892 1.086956521736724 0
836 0.9941781849165904 0.9239639332750722 0
837 2.761802827871022 1.152534696835464 0
838 0.6096292118599094 1.396541893640321 0
839 0.5116084745729098 0.953604322734244 0
840 3.608514689179089 0.7314161697921625 0
841 1.360358740748914 1.543628650142042 0
842 1.439617323660638 1.291666437346888 0
843 0.7651471868101511 0.1370676492282028 0
844 3.531240994052657 1.766892150643124 0
845 1.737824915536376 1.615841477858688 0
846 0.9027061643436133 1.718157570304022 0
847 3.434152813154856 1.546064412015193 0
848 0.07843781025538291 1.532653076108005 0
849 3.926337079494348 1.345212576070279 0
850 3.233962636281894 0.6607349550310454 0
851 3.202614401498232 1.520116903900965 0
852 3.143270663768171 1.455364563524099 0
853 0.9355578372847164 0.8594613628283968 0
854 1.986936876607637 1.325161146357242 0
855 1.592145338751587 1.570205876647638 0
856 2.827471081828806 1.448791012177814 0
857 0.5773772983226746 1.927685255439179 0
858 3.359008416558005 1.018592141498383 0
859 3.571040791114888 1.35873284424885 0
860 3.73612223869921 0.3187025468811066 0
861 1.280695557013162 1.796391506425021 0
862 1.967969582463395 1.640834955865719 0
863 1.45325943840885 1.757919411100573 0
864 3.196209493646768 1.288150048107827 0
865 0.6756162927019753 1.693849097592558 0
866 0.4439469695583241 1.666125805463895 0
867 0.6201100594246922 0.08582986477030861 0
868 3.375000000000005 0.07216878364870309 0
869 3.025299902349472 1.326665357336267 0
870 2.862750034518803 1.842168360580515 0
871 3.411511303823963 0.8526968908719075 0
872 3.292416386438193 1.735834748784149 0
873 0.5764909356163634 1.248818953339465 0
874 3.25553455976925 1.352517290825519 0
875 1.816291994587405 1.363599193111991 0
876 3.130183410264024 0.9932296055640015 0
877 0.52405470731829 1.415513637648096 0
878 1.214848144535384 1.497575795186998 0
879 3.842200789502553 0.5296405338723814 0
880 3.530124579670282 0.9805644678752776 0
881 0.707664350317446 0.8326599130141351 0
882 0.6489329641468541 0.7687101538724793 0
883 3.545185004838703 1.442503732012061 0
884 3.444493472211662 0.9996078690862391 0
885 0.3901109217448043 0.5960508345171607 0
886 0.1641668969729105 0.569572299442586 0
887 1.651860757178996 1.635123364972359 0
888 2.676331038097844 1.171841365245563 0
889 0.8181512085988818 0.7310573529269286 0
890 3.62152184041714 0.06991912601368891 0
891 3.793841810478153 0.07343627416862331 0
892 1.069985427117632 1.45094797680071 0
893 2.649920699684013 1.255471494615807 0
894 3.342923447476552 0.3312773301812357 0
895 3.543673703315216 0.4383814949023842 0
896 0.6477635109373391 1.775915877231645 0
897 0.6835455796905328 0.1519959374382865 0
898 3.517626304036292 0.5207870748392538 0
899 3.169917343440499 1.371698259321596 0
900 1.71139989749375 1.699892494971812 0
901 1.29196058247999 1.245953919162415 0
902 1.685247492262297 1.782185017307225 0
903 3.819278716150969 0.3006248045849105 0
904 0.6670160668337393 0.4581089845346406 0
905 0.635532652875484 1.313257458829601 0
906 3.069307946742022 0.9337526013373971 0
907 0.3639805669455614 0.6782652127072815 0
908 3.604954185462548 1.506802316616884 0
909 0.6084459120065838 0.3950839795464143 0
910 3.084510051397744 1.390838606251993 0
911 0.7922701565270456 0.8139565796284403 0
912 0.6949512436148038 1.377946145071577 0
913 1.002756963841412 1.155139431289327 0
914 0.7804366925590838 1.359180835562904 0
915 3.058206994442332 1.474869497454975 0
916 0.8401039297984482 1.423904053197797 0
917 0.3371317482165809 0.7614169826461251 0
918 3.031889843936797 1.559058366098061 0
919 2.945591424530779 1.578332875255168 0
920 0.3104310575637709 0.8443080591066542 0
921 0.851143325473074 0.8781541776552055 0
922 0.9253692689086576 1.40499717327989 0
923 1.520316956414812 1.041617825233805 0
924 3.851971615887646 1.210321888671414 0
925 2.043954014950629 1.073781154919328 0
926 0.3003222104120352 1.614401750647688 0
927 3.820952810147295 1.847614413260693 0
928 3.90569022926256 1.828915542037605 0
929 0.9097968479196428 0.9421050179210368 0
930 1.08693310069474 1.135871598985624 0
931 0.8839521566754844 1.025492294991313 0
932 3.484088225793648 0.1503787109015414 0
933 0.9849690359755306 1.469368375739927 0
934 2.741444779936575 1.467728701170622 0
935 0.1516211057778678 0.2615135612765739 0
936 1.206600696906496 1.264949345366918 0
937 0.9431375630840707 1.09033203902976 0
938 2.713730545179803 1.551885604122529 0
939 0.7752907183638531 0.3573104889022742 0
940 1.810920561201962 1.134764042124224 0
941 2.569319133153491 1.506255855230734 0
942 2.482826544110829 1.526291369956626 0
943 2.667907029846321 0.9360503821127713 0
944 1.146494621376893 1.200301004852104 0
945 2.454810416335537 1.610208326682005 0
946 2.31134491595179 1.564284595794001 0
947 2.473491561192056 1.052462113167725 0
948 2.14902783726922 1.152176230177619 0
949 1.043735728509221 1.53429844935737 0
950 0.2292068951382391 0.863233053817491 0
951 2.224752616366499 1.58433500447219 0
952 1.01734867398489 1.618476993404928 0
953 0.8535373669755374 0.3362232538776578 0
954 2.195910796972214 1.669297618562537 0
955 3.841984333907839 0.9889895329482693 0
956 3.925116917731627 0.2089109440765851 0
957 2.053653759316823 1.621467642822658 0
958 2.044301959497782 1.849624769307956 0
959 2.069340335338071 1.304683277150072 0
960 3.039855389617966 1.789161422249899 0
961 0.06985656907316379 0.4759583876940528 0
962 2.134364141919803 1.374165639187895 0
963 2.464872213934632 1.84184724416901 0
964 2.025493381231419 1.704362260066471 0
965 3.92152393145095 1.522982517510052 0
966 2.847592800658163 0.8983723642864524 0
967 3.927896736923638 0.4786986018656516 0
968 0.354506711754687 0.2230971631851468 0
969 3.873499998499356 0.06986945222305831 0
970 1.151648699353837 0.6528230773010878 0
971 3.155691427440966 0.6808280838456422 0
972 1.126135758645827 0.7373413854648542 0
973 1.186002055209803 0.799410284090485 0
974 3.223634141981979 0.08141102392286437 0
975 2.806081794432292 1.923259661079472 0
976 0.1480413567805481 1.126608322886449 0
977 0.9560569446413472 0.2323721405210187 0
978 0.3314826677708529 1.533597996130745 0
979 2.423721554526046 1.231481370291876 0
980 1.748420819227607 1.847746578167566 0
981 0.9857641803473493 1.700571769544811 0
982 0.6149641912912287 1.854368071649352 0
983 2.9846651222554 0.9515367876139371 0
984 0.07430753409031959 1.357129141807302 0
985 1.417493963161532 0.9791670685829021 0
986 2.450817172155078 1.139038726380351 0
987 1.990616949465971 1.785352260059779 0
988 0.7943913771339575 0.0653856392766405 0
989 1.333849137860794 1.852806182522064 0
990 3.731351803673379 1.854592144859559 0
991 3.932657159302324 0.6485334118802371 0
992 0.07247211847083854 0.3909252112226814 0
993 3.853575237149257 1.452717234274348 0
994 3.541666666666663 0.06067293064772591 0
995 0.9677741410231095 0.486364732245523 0
996 0.1523244992101442 0.8828086137427236 0
997 0.06282257339743964 0.6616447187782206 0
998 2.350894481945499 1.928358279264512 0
999 0.2761250942703218 1.462783484410138 0
1000 3.864416440587185 1.122571618944576 0
1001 1.209726158626738 0.962059683186856 0
1002 3.087065670697845 0.0686253806201893 0
1003 1.664725267551391 1.096163118577598 0
1004 3.410335507325425 1.936444297353626 0
1005 3.182244064114127 0.8352664388321778 0
1006 0.1437347821797311 1.414585486464288 0
1007 0.4186032075359765 0.07049895461506327 0
1008 3.098578907971674 0.8569949979641335 0
1009 0.2887578462721185 0.2455738579890637 0
1010 3.851556562934467 1.67198704314358 0
1011 0.2139027060227435 0.05849629162170025 0
1012 0.05960061199167344 1.778151654516345 0
1013 3.016935253498776 1.864109268463435 0
1014 0.529005949397098 1.864361796227738 0
1015 2.680913155640381 1.856249152081942 0
1016 1.905070137208971 1.128226293870647 0
1017 1.63702788146864 1.93916324646103 0
1018 3.155555555555865 1.941342748490319 0
1019 2.348770380643444 1.250349742249017 0
1020 3.86180090703281 0.3579628401150259 0
1021 3.856933817541497 0.1466975208252514 0
1022 2.589470207334602 0.9759110463591344 0
1023 3.109407352384322 1.853397730499434 0
1024 3.487263096416615 1.835119774520643 0
1025 0.9461846776033332 1.783435795749182 0
1026 3.132612775100691 0.5189783300758695 0
1027 1.257160545577875 1.861160148657529 0
1028 0.2199913667559169 1.397658315023143 0
1029 3.936581418203379 1.891825520709058 0
1030 2.881428036714852 0.8242564097896327 0
1031 0.05579864065345057 1.608695652173853 0
1032 2.312981150234129 1.343312129742495 0
1033 3.682406469744284 1.789924686716466 0
1034 1.905404525248427 1.801680027927547 0
1035 0.8438079665016895 0.1305591221372429 0
1036 1.135213290729919 1.851001961049717 0
1037 0.1306133639278451 0.9555809631540388 0
1038 0.1402742088645994 1.200478233381605 0
1039 3.935470990377229 1.763941436271299 0
1040 2.720174232302487 0.8612264220964212 0
1041 3.64923950515519 0.1336075061758297 0
1042 0.945419541032927 0.05739153235764743 0
1043 0.06332379661876548 0.0642330104071246 0
1044 3.331740618189789 0.1237949967350341 0
1045 3.269032242685468 0.1323631513055795 0
1046 0.06538864997604282 1.935112106809253 0
1047 3.937902345390772 0.06305795764780439 0
1048 3.871129142825239 0.6066925557147342 0
1049 0.1313313301847722 1.480338305942979 0
1050 0.8861084651270463 0.1902386052587005 0
1051 2.309412727642397 1.867449812587503 0
1052 1.018245686918444 0.6330503184504943 0
1053 3.867013767487863 1.38077982535007 0
1054 0.9341431770708295 0.5524341619642508 0
1055 0.1303241803692936 0.5136573169585192 0
1056 3.231336737640494 0.2320393902008365 0
1057 3.333333333332404 1.949947038002303 0
1058 0.4477410894730565 1.872938427730235 0
1059 0.4730202474335695 0.05489612314395508 0
1060 3.103582500265492 0.6396861808241675 0
1061 2.933335677766673 0.7140081562907639 0
1062 1.362729285060516 1.013881031099221 0
1063 0.550280229818938 0.132955805661804 0
1064 0.3620066498482047 0.05592404112005109 0
1065 2.933374290543125 1.874750980273488 0
1066 3.876446015050654 1.046036187048085 0
1067 0.04729566310996484 0.7391304347856855 0
1068 1.555555555562031 1.951715545359078 0
1069 2.600070362292772 1.861595129629285 0
1070 0.914618677406745 1.860789441670642 0
1071 2.090824515736634 1.122624158573516 0
1072 1.467544695842109 1.007729591327757 0
1073 3.015104958068892 0.5113671637454429 0
1074 0.9136344157708 0.3127314276785927 0
1075 1.604990015137496 1.050709677636294 0
1076 1.234892680268399 0.844659905780469 0
1077 3.601735530418533 1.800348830486558 0
1078 1.884653897427634 1.866672902923878 0
1079 0.3351821134363943 1.864819480484388 0
1080 1.982268600085783 1.122802918289003 0
1081 3.143927246640054 0.7361192107176304 0
1082 3.947551248902302 1.948978045918143 0
1083 3.94931725340258 1.60703644022674 0
1084 1.08480932414235 1.785254392482258 0
1085 3.177355043159543 1.811306335903067 0
$EndNodes
$Elements
2168
1 1 2 20 1 1 7
2 1 2 20 1 7 8
3 1 2 20 1 8 9
4 1 2 20 1 9 10
5 1 2 20 1 10 11
6 1 2 20 1 11 12
7 1 2 20 1 12 13
8 1 2 20 1 13 14
9 1 2 20 1 14 15
10 1 2 20 1 15 16
11 1 2 20 1 16 17
12 1 2 20 1 17 2
13 1 2 20 2 3 18
14 1 2 20 2 18 19
15 1 2 20 2 19 20
16 1 2 20 2 20 21
17 1 2 20 2 21 22
18 1 2 20 2 22 23
19 1 2 20 2 23 24
20 1 2 20 2 24 25
21 1 2 20 2 25 26
22 1 2 20 2 26 27
23 1 2 20 2 27 28
24 1 2 20 2 28 4
25 1 2 1 3 4 29
26 1 2 1 3 29 30
27 1 2 1 3 30 31
28 1 2 1 3 31 32
29 1 2 1 3 32 33
30 1 2 1 3 33 34
31 1 2 1 3 34 35
32 1 2 1 3 35 36
33 1 2 1 3 36 37
34 1 2 1 3 37 38
35 1 2 1 3 38 39
36 1 2 1 3 39 40
37 1 2 1 3 40 41
38 1 2 1 3 41 42
39 1 2 1 3 42 43
40 1 2 1 3 43 44
41 1 2 1 3 44 45
42 1 2 1 3 45 46
43 1 2 1 3 46 47
44 1 2 1 3 47 48
45 1 2 1 3 48 49
46 1 2 1 3 49 50
47 1 2 1 3 50 5
48 1 2 1 4 5 51
49 1 2 1 4 51 52
50 1 2 1 4 52 53
51 1 2 1 4 53 54
52 1 2 1 4 54 55
53 1 2 1 4 55 56
54 1 2 1 4 56 57
55 1 2 1 4 57 58
56 1 2 1 4 58 59
57 1 2 1 4 59 60
58 1 2 1 4 60 61
59 1 2 1 4 61 62
60 1 2 1 4 62 63
61 1 2 1 4 63 64
62 1 2 1 4 64 65
63 1 2 1 4 65 66
64 1 2 1 4 66 67
65 1 2 1 4 67 68
66 1 2 1 4 68 69
67 1 2 1 4 69 70
68 1 2 1 4 70 71
69 1 2 1 4 71 72
70 1 2 1 4 72 73
71 1 2 1 4 73 74
72 1 2 1 4 74 75
73 1 2 1 4 75 76
74 1 2 1 4 76 77
75 1 2 1 4 77 78
76 1 2 1 4 78 79
77 1 2 1 4 79 80
78 1 2 1 4 80 81
79 1 2 1 4 81 82
80 1 2 1 4 82 83
81 1 2 1 4 83 84
82 1 2 1 4 84 85
83 1 2 1 4 85 86
84 1 2 1 4 86 87
85 1 2 1 4 87 88
86 1 2 1 4 88 89
87 1 2 1 4 89 90
88 1 2 1 4 90 91
89 1 2 1 4 91 92
90 1 2 1 4 92 93
91 1 2 1 4 93 94
92 1 2 1 4 94 6
93 1 2 1 5 6 95
94 1 2 1 5 95 96
95 1 2 1 5 96 97
96 1 2 1 5 97 98
97 1 2 1 5 98 99
98 1 2 1 5 99 100
99 1 2 1 5 100 101
100 1 2 1 5 101 102
101 1 2 1 5 102 103
102 1 2 1 5 103 104
103 1 2 1 5 104 105
104 1 2 1 5 105 106
105 1 2 1 5 106 107
106 1 2 1 5 107 108
107 1 2 1 5 108 109
108 1 2 1 5 109 110
109 1 2 1 5 110 111
110 1 2 1 5 111 112
111 1 2 1 5 112 113
112 1 2 1 5 113 114
113 1 2 1 5 114 115
114 1 2 1 5 115 116
115 1 2 1 5 116 1
116 1 2 20 6 117 3
117 1 2 20 6 118 117
118 1 2 20 6 119 118
119 1 2 20 6 120 119
120 1 2 20 6 121 120
121 1 2 20 6 122 121
122 1 2 20 6 123 122
123 1 2 20 6 124 123
124 1 2 20 6 125 124
125 1 2 20 6 126 125
126 1 2 20 6 127 126
127 1 2 20 6 128 127
128 1 2 20 6 129 128
129 1 2 20 6 130 129
130 1 2 20 6 131 130
131 1 2 20 6 132 131
132 1 2 20 6 133 132
133 1 2 20 6 134 133
134 1 2 20 6 135 134
135 1 2 20 6 136 135
136 1 2 20 6 137 136
137 1 2 20 6 138 137
138 1 2 20 6 139 138
139 1 2 20 6 140 139
140 1 2 20 6 141 140
141 1 2 20 6 142 141
142 1 2 20 6 143 142
143 1 2 20 6 144 143
144 1 2 20 6 145 144
145 1 2 20 6 146 145
146 1 2 20 6 147 146
147 1 2 20 6 148 147
148 1 2 20 6 149 148
149 1 2 20 6 150 149
150 1 2 20 6 151 150
151 1 2 20 6 2 151
152 2 2 5 1 638 182 903
153 2 2 5 1 520 657 966
154 2 2 5 1 657 520 1040
155 2 2 5 1 19 628 1002
156 2 2 5 1 617 180 817
157 2 2 5 1 635 190 637
158 2 2 5 1 669 607 948
159 2 2 5 1 719 750 935
160 2 2 5 1 721 440 968
161 2 2 5 1 164 615 868
162 2 2 5 1 668 171 686
163 2 2 5 1 3 18 1002
164 2 2 5 1 117 3 1002
165 2 2 5 1 628 19 974
166 2 2 5 1 365 669 685
167 2 2 5 1 434 436 704
168 2 2 5 1 669 365 699
169 2 2 5 1 38 39 705
170 2 2 5 1 182 638 956
171 2 2 5 1 168 640 641
172 2 2 5 1 177 879 967
173 2 2 5 1 615 164 932
174 2 2 5 1 171 668 948
175 2 2 5 1 870 159 975
176 2 2 5 1 440 721 729
177 2 2 5 1 607 669 699
178 2 2 5 1 637 190 891
179 2 2 5 1 103 154 811
180 2 2 5 1 698 646 995
181 2 2 5 1 532 833 849
182 2 2 5 1 197 644 832
183 2 2 5 1 539 698 995
184 2 2 5 1 7 8 717
185 2 2 5 1 675 870 975
186 2 2 5 1 416 208 627
187 2 2 5 1 85 86 690
188 2 2 5 1 682 559 683
189 2 2 5 1 619 617 817
190 2 2 5 1 553 705 955
191 2 2 5 1 555 693 872
192 2 2 5 1 553 704 705
193 2 2 5 1 625 160 704
194 2 2 5 1 932 164 994
195 2 2 5 1 750 691 935
196 2 2 5 1 39 198 705
197 2 2 5 1 828 169 963
198 2 2 5 1 683 559 1001
199 2 2 5 1 662 595 947
200 2 2 5 1 95 96 736
201 2 2 5 1 632 738 745
202 2 2 5 1 7 717 1043
203 2 2 5 1 160 625 703
204 2 2 5 1 563 813 980
205 2 2 5 1 102 103 811
206 2 2 5 1 621 867 897
207 2 2 5 1 714 932 994
208 2 2 5 1 141 162 659
209 2 2 5 1 436 625 704
210 2 2 5 1 553 434 704
211 2 2 5 1 136 170 671
212 2 2 5 1 879 572 967
213 2 2 5 1 720 721 968
214 2 2 5 1 742 740 848
215 2 2 5 1 832 644 976
216 2 2 5 1 1005 279 1008
217 2 2 5 1 647 649 660
218 2 2 5 1 416 627 1056
219 2 2 5 1 764 979 986
220 2 2 5 1 659 162 682
221 2 2 5 1 160 38 705
222 2 2 5 1 681 1005 1008
223 2 2 5 1 720 189 721
224 2 2 5 1 813 179 980
225 2 2 5 1 738 632 746
226 2 2 5 1 671 170 940
227 2 2 5 1 965 723 993
228 2 2 5 1 95 736 1046
229 2 2 5 1 750 719 1009
230 2 2 5 1 208 207 627
231 2 2 5 1 169 820 963
232 2 2 5 1 640 168 726
233 2 2 5 1 634 176 886
234 2 2 5 1 412 404 695
235 2 2 5 1 404 538 695
236 2 2 5 1 579 674 970
237 2 2 5 1 718 189 720
238 2 2 5 1 693 538 872
239 2 2 5 1 623 173 1004
240 2 2 5 1 86 153 690
241 2 2 5 1 196 85 690
242 2 2 5 1 180 617 1051
243 2 2 5 1 173 623 1024
244 2 2 5 1 153 642 690
245 2 2 5 1 739 187 740
246 2 2 5 1 595 662 1022
247 2 2 5 1 737 187 739
248 2 2 5 1 848 740 1031
249 2 2 5 1 642 153 687
250 2 2 5 1 207 201 627
251 2 2 5 1 555 692 693
252 2 2 5 1 668 669 948
253 2 2 5 1 168 641 1068
254 2 2 5 1 118 201 207
255 2 2 5 1 18 19 1002
256 2 2 5 1 494 707 983
257 2 2 5 1 734 735 746
258 2 2 5 1 833 532 924
259 2 2 5 1 184 148 646
260 2 2 5 1 532 849 1053
261 2 2 5 1 665 668 686
262 2 2 5 1 537 671 940
263 2 2 5 1 1019 355 1032
264 2 2 5 1 123 647 660
265 2 2 5 1 126 656 661
266 2 2 5 1 663 665 686
267 2 2 5 1 685 1019 1032
268 2 2 5 1 867 621 1063
269 2 2 5 1 176 634 997
270 2 2 5 1 552 571 677
271 2 2 5 1 645 628 974
272 2 2 5 1 673 134 925
273 2 2 5 1 979 666 986
274 2 2 5 1 420 987 1034
275 2 2 5 1 619 816 958
276 2 2 5 1 185 662 947
277 2 2 5 1 184 646 698
278 2 2 5 1 961 112 992
279 2 2 5 1 627 645 1056
280 2 2 5 1 175 965 993
281 2 2 5 1 161 676 677
282 2 2 5 1 867 199 897
283 2 2 5 1 642 643 690
284 2 2 5 1 206 927 928
285 2 2 5 1 674 145 970
286 2 2 5 1 816 619 817
287 2 2 5 1 162 672 985
288 2 2 5 1 692 623 1004
289 2 2 5 1 671 537 1003
290 2 2 5 1 680 639 1026
291 2 2 5 1 707 655 983
292 2 2 5 1 985 672 1072
293 2 2 5 1 724 188 1010
294 2 2 5 1 142 141 659
295 2 2 5 1 137 136 671
296 2 2 5 1 188 633 1010
297 2 2 5 1 592 794 1036
298 2 2 5 1 639 680 1073
299 2 2 5 1 633 188 1039
300 2 2 5 1 692 1004 1057
301 2 2 5 1 811 154 1038
302 2 2 5 1 190 635 1041
303 2 2 5 1 676 552 677
304 2 2 5 1 416 678 727
305 2 2 5 1 645 616 1056
306 2 2 5 1 645 974 1045
307 2 2 5 1 903 182 1020
308 2 2 5 1 660 649 1061
309 2 2 5 1 167 765 1073
310 2 2 5 1 183 209 765
311 2 2 5 1 632 745 747
312 2 2 5 1 735 738 746
313 2 2 5 1 966 657 1030
314 2 2 5 1 705 198 955
315 2 2 5 1 794 592 1027
316 2 2 5 1 191 734 746
317 2 2 5 1 285 727 894
318 2 2 5 1 188 724 1083
319 2 2 5 1 891 969 1021
320 2 2 5 1 503 592 1036
321 2 2 5 1 765 639 1073
322 2 2 5 1 987 815 1034
323 2 2 5 1 163 661 943
324 2 2 5 1 656 657 1040
325 2 2 5 1 727 678 894
326 2 2 5 1 879 177 1048
327 2 2 5 1 688 202 1035
328 2 2 5 1 503 1036 1084
329 2 2 5 1 285 684 749
330 2 2 5 1 834 161 996
331 2 2 5 1 616 645 1045
332 2 2 5 1 684 285 894
333 2 2 5 1 647 167 648
334 2 2 5 1 558 559 696
335 2 2 5 1 656 157 657
336 2 2 5 1 658 142 659
337 2 2 5 1 739 741 745
338 2 2 5 1 670 137 671
339 2 2 5 1 663 185 664
340 2 2 5 1 349 959 962
341 2 2 5 1 637 891 1021
342 2 2 5 1 701 237 749
343 2 2 5 1 630 747 866
344 2 2 5 1 674 579 1052
345 2 2 5 1 558 696 697
346 2 2 5 1 608 961 992
347 2 2 5 1 684 701 749
348 2 2 5 1 181 691 992
349 2 2 5 1 539 575 698
350 2 2 5 1 79 80 752
351 2 2 5 1 657 157 679
352 2 2 5 1 567 797 901
353 2 2 5 1 785 802 1084
354 2 2 5 1 692 152 693
355 2 2 5 1 206 928 1029
356 2 2 5 1 708 237 898
357 2 2 5 1 209 639 765
358 2 2 5 1 672 186 923
359 2 2 5 1 607 606 1071
360 2 2 5 1 627 201 628
361 2 2 5 1 119 118 207
362 2 2 5 1 120 183 765
363 2 2 5 1 677 571 950
364 2 2 5 1 620 619 958
365 2 2 5 1 195 675 975
366 2 2 5 1 148 147 646
367 2 2 5 1 237 701 898
368 2 2 5 1 167 121 765
369 2 2 5 1 948 607 1071
370 2 2 5 1 412 695 960
371 2 2 5 1 122 167 647
372 2 2 5 1 124 123 660
373 2 2 5 1 146 145 674
374 2 2 5 1 125 157 656
375 2 2 5 1 143 142 658
376 2 2 5 1 127 126 661
377 2 2 5 1 138 137 670
378 2 2 5 1 135 134 673
379 2 2 5 1 161 677 996
380 2 2 5 1 128 163 662
381 2 2 5 1 162 140 672
382 2 2 5 1 185 129 662
383 2 2 5 1 139 186 672
384 2 2 5 1 171 132 686
385 2 2 5 1 130 185 663
386 2 2 5 1 131 663 686
387 2 2 5 1 204 956 1021
388 2 2 5 1 745 741 926
389 2 2 5 1 697 567 901
390 2 2 5 1 659 682 683
391 2 2 5 1 154 832 976
392 2 2 5 1 595 596 947
393 2 2 5 1 729 165 1063
394 2 2 5 1 704 160 705
395 2 2 5 1 739 740 741
396 2 2 5 1 36 37 703
397 2 2 5 1 1035 202 1050
398 2 2 5 1 218 237 708
399 2 2 5 1 970 156 972
400 2 2 5 1 747 392 866
401 2 2 5 1 133 171 925
402 2 2 5 1 687 153 712
403 2 2 5 1 481 567 697
404 2 2 5 1 691 181 935
405 2 2 5 1 37 160 703
406 2 2 5 1 741 743 926
407 2 2 5 1 951 611 954
408 2 2 5 1 696 481 697
409 2 2 5 1 80 194 752
410 2 2 5 1 630 632 747
411 2 2 5 1 691 608 992
412 2 2 5 1 354 951 954
413 2 2 5 1 956 638 1021
414 2 2 5 1 163 943 1022
415 2 2 5 1 670 671 1003
416 2 2 5 1 604 723 724
417 2 2 5 1 168 79 752
418 2 2 5 1 431 475 919
419 2 2 5 1 707 966 1030
420 2 2 5 1 246 700 709
421 2 2 5 1 568 558 697
422 2 2 5 1 165 867 1063
423 2 2 5 1 246 218 708
424 2 2 5 1 942 591 945
425 2 2 5 1 959 699 962
426 2 2 5 1 700 246 708
427 2 2 5 1 564 565 722
428 2 2 5 1 282 942 945
429 2 2 5 1 928 49 1029
430 2 2 5 1 475 771 787
431 2 2 5 1 564 722 755
432 2 2 5 1 604 722 723
433 2 2 5 1 787 771 856
434 2 2 5 1 868 615 1044
435 2 2 5 1 662 163 1022
436 2 2 5 1 880 474 884
437 2 2 5 1 802 785 981
438 2 2 5 1 181 715 935
439 2 2 5 1 527 710 904
440 2 2 5 1 144 156 970
441 2 2 5 1 102 811 984
442 2 2 5 1 769 725 938
443 2 2 5 1 627 628 645
444 2 2 5 1 797 306 901
445 2 2 5 1 755 484 908
446 2 2 5 1 202 150 977
447 2 2 5 1 804 709 840
448 2 2 5 1 676 161 1067
449 2 2 5 1 647 648 649
450 2 2 5 1 675 195 1015
451 2 2 5 1 709 700 840
452 2 2 5 1 711 339 798
453 2 2 5 1 731 709 804
454 2 2 5 1 149 184 977
455 2 2 5 1 663 664 665
456 2 2 5 1 339 711 799
457 2 2 5 1 710 733 904
458 2 2 5 1 805 240 871
459 2 2 5 1 467 731 804
460 2 2 5 1 693 152 694
461 2 2 5 1 343 333 799
462 2 2 5 1 199 843 897
463 2 2 5 1 716 203 717
464 2 2 5 1 543 683 1001
465 2 2 5 1 463 550 713
466 2 2 5 1 475 787 919
467 2 2 5 1 776 611 946
468 2 2 5 1 568 697 901
469 2 2 5 1 760 356 764
470 2 2 5 1 201 117 1002
471 2 2 5 1 904 342 909
472 2 2 5 1 596 760 764
473 2 2 5 1 644 197 1037
474 2 2 5 1 724 723 965
475 2 2 5 1 725 277 938
476 2 2 5 1 223 221 871
477 2 2 5 1 843 514 897
478 2 2 5 1 181 114 715
479 2 2 5 1 333 339 799
480 2 2 5 1 153 87 712
481 2 2 5 1 557 750 818
482 2 2 5 1 601 781 825
483 2 2 5 1 575 710 939
484 2 2 5 1 634 676 997
485 2 2 5 1 741 740 742
486 2 2 5 1 726 529 863
487 2 2 5 1 474 768 884
488 2 2 5 1 564 755 908
489 2 2 5 1 640 726 863
490 2 2 5 1 210 416 727
491 2 2 5 1 805 880 884
492 2 2 5 1 87 88 712
493 2 2 5 1 716 717 718
494 2 2 5 1 728 440 729
495 2 2 5 1 946 611 951
496 2 2 5 1 570 756 878
497 2 2 5 1 221 730 871
498 2 2 5 1 715 203 716
499 2 2 5 1 654 679 1061
500 2 2 5 1 349 781 854
501 2 2 5 1 722 565 723
502 2 2 5 1 1018 193 1023
503 2 2 5 1 429 440 728
504 2 2 5 1 750 408 818
505 2 2 5 1 734 205 735
506 2 2 5 1 306 307 936
507 2 2 5 1 798 339 839
508 2 2 5 1 221 219 730
509 2 2 5 1 913 824 937
510 2 2 5 1 733 374 762
511 2 2 5 1 731 467 805
512 2 2 5 1 756 308 878
513 2 2 5 1 93 205 734
514 2 2 5 1 206 52 748
515 2 2 5 1 735 205 736
516 2 2 5 1 488 485 755
517 2 2 5 1 214 285 749
518 2 2 5 1 725 591 941
519 2 2 5 1 240 805 884
520 2 2 5 1 302 797 842
521 2 2 5 1 115 116 203
522 2 2 5 1 29 30 204
523 2 2 5 1 115 203 715
524 2 2 5 1 118 117 201
525 2 2 5 1 151 150 202
526 2 2 5 1 495 812 827
527 2 2 5 1 454 561 732
528 2 2 5 1 376 374 733
529 2 2 5 1 464 462 530
530 2 2 5 1 246 709 730
531 2 2 5 1 797 567 842
532 2 2 5 1 530 713 714
533 2 2 5 1 825 292 875
534 2 2 5 1 183 119 207
535 2 2 5 1 165 729 1059
536 2 2 5 1 210 208 416
537 2 2 5 1 183 207 208
538 2 2 5 1 731 805 871
539 2 2 5 1 219 246 730
540 2 2 5 1 781 601 854
541 2 2 5 1 722 488 755
542 2 2 5 1 735 736 737
543 2 2 5 1 550 551 615
544 2 2 5 1 271 753 847
545 2 2 5 1 462 463 713
546 2 2 5 1 285 212 727
547 2 2 5 1 460 461 462
548 2 2 5 1 768 474 821
549 2 2 5 1 766 768 821
550 2 2 5 1 838 772 877
551 2 2 5 1 757 173 758
552 2 2 5 1 495 808 812
553 2 2 5 1 347 359 778
554 2 2 5 1 347 358 359
555 2 2 5 1 359 407 429
556 2 2 5 1 331 328 839
557 2 2 5 1 649 648 650
558 2 2 5 1 429 407 440
559 2 2 5 1 941 591 942
560 2 2 5 1 359 358 407
561 2 2 5 1 256 356 893
562 2 2 5 1 527 904 909
563 2 2 5 1 334 343 754
564 2 2 5 1 460 462 464
565 2 2 5 1 512 469 621
566 2 2 5 1 356 760 893
567 2 2 5 1 406 557 818
568 2 2 5 1 458 459 460
569 2 2 5 1 55 173 757
570 2 2 5 1 457 456 458
571 2 2 5 1 575 445 710
572 2 2 5 1 757 758 759
573 2 2 5 1 463 466 550
574 2 2 5 1 601 825 875
575 2 2 5 1 240 223 871
576 2 2 5 1 172 90 751
577 2 2 5 1 359 468 778
578 2 2 5 1 464 530 635
579 2 2 5 1 485 484 755
580 2 2 5 1 781 276 825
581 2 2 5 1 212 210 727
582 2 2 5 1 881 329 882
583 2 2 5 1 712 88 857
584 2 2 5 1 530 462 713
585 2 2 5 1 337 336 338
586 2 2 5 1 469 429 728
587 2 2 5 1 511 838 877
588 2 2 5 1 237 216 749
589 2 2 5 1 93 94 205
590 2 2 5 1 51 52 206
591 2 2 5 1 272 766 821
592 2 2 5 1 498 801 841
593 2 2 5 1 299 302 789
594 2 2 5 1 621 469 728
595 2 2 5 1 191 92 734
596 2 2 5 1 53 192 748
597 2 2 5 1 458 456 459
598 2 2 5 1 332 333 334
599 2 2 5 1 399 808 823
600 2 2 5 1 462 461 463
601 2 2 5 1 230 238 793
602 2 2 5 1 329 331 332
603 2 2 5 1 808 495 823
604 2 2 5 1 690 643 1070
605 2 2 5 1 605 633 927
606 2 2 5 1 214 212 285
607 2 2 5 1 557 691 750
608 2 2 5 1 335 334 336
609 2 2 5 1 789 302 842
610 2 2 5 1 113 114 181
611 2 2 5 1 31 32 182
612 2 2 5 1 455 454 456
613 2 2 5 1 341 346 347
614 2 2 5 1 537 421 777
615 2 2 5 1 719 718 720
616 2 2 5 1 338 340 341
617 2 2 5 1 192 757 759
618 2 2 5 1 120 119 183
619 2 2 5 1 149 148 184
620 2 2 5 1 356 763 764
621 2 2 5 1 460 464 860
622 2 2 5 1 154 976 1038
623 2 2 5 1 475 770 771
624 2 2 5 1 801 304 841
625 2 2 5 1 339 331 839
626 2 2 5 1 228 230 793
627 2 2 5 1 380 471 780
628 2 2 5 1 487 485 488
629 2 2 5 1 182 32 761
630 2 2 5 1 283 269 847
631 2 2 5 1 726 168 752
632 2 2 5 1 603 488 604
633 2 2 5 1 327 328 329
634 2 2 5 1 356 258 763
635 2 2 5 1 738 737 739
636 2 2 5 1 820 612 963
637 2 2 5 1 475 443 770
638 2 2 5 1 585 725 769
639 2 2 5 1 768 767 858
640 2 2 5 1 539 445 575
641 2 2 5 1 615 551 616
642 2 2 5 1 371 439 773
643 2 2 5 1 665 664 666
644 2 2 5 1 531 773 774
645 2 2 5 1 192 54 757
646 2 2 5 1 460 459 461
647 2 2 5 1 347 357 358
648 2 2 5 1 338 336 340
649 2 2 5 1 791 790 792
650 2 2 5 1 216 214 749
651 2 2 5 1 114 115 715
652 2 2 5 1 229 227 767
653 2 2 5 1 270 284 851
654 2 2 5 1 518 851 852
655 2 2 5 1 178 814 815
656 2 2 5 1 445 376 733
657 2 2 5 1 487 488 603
658 2 2 5 1 328 779 839
659 2 2 5 1 484 753 908
660 2 2 5 1 91 92 191
661 2 2 5 1 53 54 192
662 2 2 5 1 561 708 898
663 2 2 5 1 218 216 237
664 2 2 5 1 269 271 847
665 2 2 5 1 782 196 784
666 2 2 5 1 550 466 551
667 2 2 5 1 650 648 680
668 2 2 5 1 342 341 778
669 2 2 5 1 233 229 767
670 2 2 5 1 793 792 876
671 2 2 5 1 278 790 791
672 2 2 5 1 92 93 734
673 2 2 5 1 52 53 748
674 2 2 5 1 91 191 751
675 2 2 5 1 110 111 176
676 2 2 5 1 34 35 177
677 2 2 5 1 329 328 331
678 2 2 5 1 773 439 774
679 2 2 5 1 332 331 333
680 2 2 5 1 780 798 839
681 2 2 5 1 383 399 823
682 2 2 5 1 391 389 772
683 2 2 5 1 766 233 767
684 2 2 5 1 780 471 798
685 2 2 5 1 421 403 777
686 2 2 5 1 590 611 776
687 2 2 5 1 710 445 733
688 2 2 5 1 741 742 743
689 2 2 5 1 251 289 829
690 2 2 5 1 350 371 773
691 2 2 5 1 484 482 753
692 2 2 5 1 478 622 777
693 2 2 5 1 483 482 484
694 2 2 5 1 582 585 769
695 2 2 5 1 455 456 457
696 2 2 5 1 328 325 779
697 2 2 5 1 180 70 817
698 2 2 5 1 360 476 819
699 2 2 5 1 303 306 797
700 2 2 5 1 332 334 335
701 2 2 5 1 178 73 814
702 2 2 5 1 84 196 782
703 2 2 5 1 473 711 798
704 2 2 5 1 341 347 778
705 2 2 5 1 566 458 860
706 2 2 5 1 483 484 485
707 2 2 5 1 296 360 819
708 2 2 5 1 573 427 800
709 2 2 5 1 438 630 866
710 2 2 5 1 66 169 788
711 2 2 5 1 62 159 786
712 2 2 5 1 630 631 632
713 2 2 5 1 895 732 898
714 2 2 5 1 457 458 566
715 2 2 5 1 378 380 780
716 2 2 5 1 569 881 882
717 2 2 5 1 518 270 851
718 2 2 5 1 783 784 785
719 2 2 5 1 338 342 762
720 2 2 5 1 766 767 768
721 2 2 5 1 194 81 794
722 2 2 5 1 491 494 790
723 2 2 5 1 753 482 847
724 2 2 5 1 360 351 403
725 2 2 5 1 147 166 646
726 2 2 5 1 72 178 816
727 2 2 5 1 75 179 813
728 2 2 5 1 89 90 172
729 2 2 5 1 55 56 173
730 2 2 5 1 338 341 342
731 2 2 5 1 209 208 210
732 2 2 5 1 535 421 537
733 2 2 5 1 360 403 421
734 2 2 5 1 334 333 343
735 2 2 5 1 468 429 469
736 2 2 5 1 471 473 798
737 2 2 5 1 238 791 793
738 2 2 5 1 450 437 451
739 2 2 5 1 158 782 783
740 2 2 5 1 570 580 756
741 2 2 5 1 311 314 803
742 2 2 5 1 235 233 766
743 2 2 5 1 400 391 772
744 2 2 5 1 604 488 722
745 2 2 5 1 296 351 360
746 2 2 5 1 302 303 797
747 2 2 5 1 753 271 883
748 2 2 5 1 829 289 837
749 2 2 5 1 403 478 777
750 2 2 5 1 403 477 478
751 2 2 5 1 526 427 573
752 2 2 5 1 565 433 795
753 2 2 5 1 585 586 591
754 2 2 5 1 344 320 831
755 2 2 5 1 303 305 306
756 2 2 5 1 451 455 796
757 2 2 5 1 525 400 772
758 2 2 5 1 783 782 784
759 2 2 5 1 500 502 570
760 2 2 5 1 423 400 525
761 2 2 5 1 335 336 337
762 2 2 5 1 326 325 327
763 2 2 5 1 478 480 622
764 2 2 5 1 443 510 770
765 2 2 5 1 808 807 809
766 2 2 5 1 436 435 437
767 2 2 5 1 456 454 732
768 2 2 5 1 808 809 812
769 2 2 5 1 473 496 497
770 2 2 5 1 318 344 824
771 2 2 5 1 423 577 800
772 2 2 5 1 418 362 482
773 2 2 5 1 241 235 272
774 2 2 5 1 258 260 763
775 2 2 5 1 297 299 789
776 2 2 5 1 264 266 365
777 2 2 5 1 809 810 811
778 2 2 5 1 325 324 779
779 2 2 5 1 268 274 349
780 2 2 5 1 451 453 454
781 2 2 5 1 272 235 766
782 2 2 5 1 779 378 780
783 2 2 5 1 478 479 480
784 2 2 5 1 585 591 725
785 2 2 5 1 510 769 770
786 2 2 5 1 296 297 351
787 2 2 5 1 307 309 310
788 2 2 5 1 310 311 803
789 2 2 5 1 341 340 346
790 2 2 5 1 590 610 611
791 2 2 5 1 399 807 808
792 2 2 5 1 336 334 754
793 2 2 5 1 350 370 371
794 2 2 5 1 588 590 776
795 2 2 5 1 618 620 706
796 2 2 5 1 306 305 307
797 2 2 5 1 380 393 471
798 2 2 5 1 281 291 292
799 2 2 5 1 260 262 355
800 2 2 5 1 436 437 450
801 2 2 5 1 582 584 585
802 2 2 5 1 256 258 356
803 2 2 5 1 432 367 531
804 2 2 5 1 337 338 762
805 2 2 5 1 244 278 791
806 2 2 5 1 510 582 769
807 2 2 5 1 775 439 830
808 2 2 5 1 288 680 1026
809 2 2 5 1 801 570 878
810 2 2 5 1 311 313 314
811 2 2 5 1 498 500 801
812 2 2 5 1 324 378 779
813 2 2 5 1 774 439 775
814 2 2 5 1 260 355 763
815 2 2 5 1 743 742 744
816 2 2 5 1 480 481 562
817 2 2 5 1 451 454 455
818 2 2 5 1 286 272 287
819 2 2 5 1 491 493 494
820 2 2 5 1 431 443 475
821 2 2 5 1 450 451 796
822 2 2 5 1 327 325 328
823 2 2 5 1 348 287 350
824 2 2 5 1 371 370 372
825 2 2 5 1 350 287 370
826 2 2 5 1 54 55 757
827 2 2 5 1 310 309 311
828 2 2 5 1 423 525 577
829 2 2 5 1 293 295 296
830 2 2 5 1 326 327 330
831 2 2 5 1 570 502 580
832 2 2 5 1 278 491 790
833 2 2 5 1 315 318 824
834 2 2 5 1 476 421 535
835 2 2 5 1 315 317 318
836 2 2 5 1 471 393 472
837 2 2 5 1 649 650 651
838 2 2 5 1 464 636 860
839 2 2 5 1 299 301 302
840 2 2 5 1 86 87 153
841 2 2 5 1 58 59 152
842 2 2 5 1 454 453 561
843 2 2 5 1 364 405 422
844 2 2 5 1 497 496 602
845 2 2 5 1 314 313 315
846 2 2 5 1 399 806 807
847 2 2 5 1 371 372 396
848 2 2 5 1 287 272 821
849 2 2 5 1 626 450 796
850 2 2 5 1 473 497 711
851 2 2 5 1 71 816 817
852 2 2 5 1 251 254 289
853 2 2 5 1 432 531 532
854 2 2 5 1 74 813 814
855 2 2 5 1 193 61 786
856 2 2 5 1 471 472 473
857 2 2 5 1 318 319 320
858 2 2 5 1 169 67 820
859 2 2 5 1 791 792 793
860 2 2 5 1 396 372 397
861 2 2 5 1 444 376 445
862 2 2 5 1 536 535 597
863 2 2 5 1 320 319 322
864 2 2 5 1 158 83 782
865 2 2 5 1 195 65 788
866 2 2 5 1 318 317 319
867 2 2 5 1 121 120 765
868 2 2 5 1 598 597 599
869 2 2 5 1 500 570 801
870 2 2 5 1 348 350 367
871 2 2 5 1 320 322 323
872 2 2 5 1 772 389 877
873 2 2 5 1 323 324 325
874 2 2 5 1 418 482 483
875 2 2 5 1 323 322 324
876 2 2 5 1 82 158 794
877 2 2 5 1 378 379 380
878 2 2 5 1 735 737 738
879 2 2 5 1 403 351 477
880 2 2 5 1 585 584 586
881 2 2 5 1 84 85 196
882 2 2 5 1 60 61 193
883 2 2 5 1 166 674 689
884 2 2 5 1 367 350 773
885 2 2 5 1 493 519 520
886 2 2 5 1 380 381 393
887 2 2 5 1 324 345 378
888 2 2 5 1 491 492 493
889 2 2 5 1 276 281 825
890 2 2 5 1 349 274 781
891 2 2 5 1 531 367 773
892 2 2 5 1 478 477 479
893 2 2 5 1 600 599 606
894 2 2 5 1 302 301 303
895 2 2 5 1 75 76 179
896 2 2 5 1 72 73 178
897 2 2 5 1 69 70 180
898 2 2 5 1 241 272 286
899 2 2 5 1 241 286 822
900 2 2 5 1 71 72 816
901 2 2 5 1 730 709 731
902 2 2 5 1 292 293 819
903 2 2 5 1 286 287 348
904 2 2 5 1 383 385 399
905 2 2 5 1 74 75 813
906 2 2 5 1 434 411 435
907 2 2 5 1 278 490 491
908 2 2 5 1 480 479 481
909 2 2 5 1 32 33 761
910 2 2 5 1 451 437 453
911 2 2 5 1 78 79 168
912 2 2 5 1 66 67 169
913 2 2 5 1 434 435 436
914 2 2 5 1 238 244 791
915 2 2 5 1 396 397 410
916 2 2 5 1 410 397 411
917 2 2 5 1 809 807 810
918 2 2 5 1 473 472 496
919 2 2 5 1 274 276 781
920 2 2 5 1 80 81 194
921 2 2 5 1 64 65 195
922 2 2 5 1 244 247 278
923 2 2 5 1 438 629 630
924 2 2 5 1 413 431 919
925 2 2 5 1 82 83 158
926 2 2 5 1 62 63 159
927 2 2 5 1 292 291 293
928 2 2 5 1 371 396 439
929 2 2 5 1 90 91 751
930 2 2 5 1 575 939 953
931 2 2 5 1 562 481 696
932 2 2 5 1 296 295 297
933 2 2 5 1 314 315 824
934 2 2 5 1 293 296 819
935 2 2 5 1 410 411 434
936 2 2 5 1 183 208 209
937 2 2 5 1 486 485 487
938 2 2 5 1 318 320 344
939 2 2 5 1 439 396 830
940 2 2 5 1 493 492 519
941 2 2 5 1 625 450 626
942 2 2 5 1 470 469 512
943 2 2 5 1 651 650 652
944 2 2 5 1 307 308 309
945 2 2 5 1 323 325 326
946 2 2 5 1 83 84 782
947 2 2 5 1 70 71 817
948 2 2 5 1 73 74 814
949 2 2 5 1 491 490 492
950 2 2 5 1 67 68 820
951 2 2 5 1 311 312 313
952 2 2 5 1 550 615 932
953 2 2 5 1 315 316 317
954 2 2 5 1 362 283 847
955 2 2 5 1 65 66 788
956 2 2 5 1 435 411 804
957 2 2 5 1 406 556 557
958 2 2 5 1 534 542 836
959 2 2 5 1 61 62 786
960 2 2 5 1 81 82 794
961 2 2 5 1 411 467 804
962 2 2 5 1 378 345 379
963 2 2 5 1 303 304 305
964 2 2 5 1 428 427 526
965 2 2 5 1 360 421 476
966 2 2 5 1 359 429 468
967 2 2 5 1 372 370 474
968 2 2 5 1 380 379 381
969 2 2 5 1 738 739 745
970 2 2 5 1 427 424 800
971 2 2 5 1 453 437 840
972 2 2 5 1 558 547 559
973 2 2 5 1 281 292 825
974 2 2 5 1 605 603 633
975 2 2 5 1 284 364 851
976 2 2 5 1 424 423 800
977 2 2 5 1 411 397 467
978 2 2 5 1 278 247 490
979 2 2 5 1 368 367 432
980 2 2 5 1 661 656 1040
981 2 2 5 1 157 124 660
982 2 2 5 1 381 383 823
983 2 2 5 1 399 385 806
984 2 2 5 1 410 434 553
985 2 2 5 1 426 424 427
986 2 2 5 1 385 387 806
987 2 2 5 1 166 146 674
988 2 2 5 1 500 501 502
989 2 2 5 1 545 549 578
990 2 2 5 1 324 322 345
991 2 2 5 1 542 545 836
992 2 2 5 1 593 594 595
993 2 2 5 1 292 819 875
994 2 2 5 1 564 433 565
995 2 2 5 1 401 400 423
996 2 2 5 1 914 316 916
997 2 2 5 1 665 667 668
998 2 2 5 1 476 535 536
999 2 2 5 1 123 122 647
1000 2 2 5 1 498 499 500
1001 2 2 5 1 410 553 830
1002 2 2 5 1 258 259 260
1003 2 2 5 1 157 660 679
1004 2 2 5 1 260 261 262
1005 2 2 5 1 561 700 708
1006 2 2 5 1 256 257 258
1007 2 2 5 1 262 263 264
1008 2 2 5 1 472 393 495
1009 2 2 5 1 586 587 588
1010 2 2 5 1 536 597 598
1011 2 2 5 1 147 146 166
1012 2 2 5 1 122 121 167
1013 2 2 5 1 125 124 157
1014 2 2 5 1 144 143 156
1015 2 2 5 1 264 265 266
1016 2 2 5 1 653 652 681
1017 2 2 5 1 266 267 268
1018 2 2 5 1 407 358 408
1019 2 2 5 1 268 273 274
1020 2 2 5 1 588 589 590
1021 2 2 5 1 590 609 610
1022 2 2 5 1 598 599 600
1023 2 2 5 1 582 583 584
1024 2 2 5 1 395 391 400
1025 2 2 5 1 610 617 618
1026 2 2 5 1 519 521 593
1027 2 2 5 1 472 495 827
1028 2 2 5 1 254 255 256
1029 2 2 5 1 618 619 620
1030 2 2 5 1 510 581 582
1031 2 2 5 1 89 172 857
1032 2 2 5 1 557 608 691
1033 2 2 5 1 805 467 880
1034 2 2 5 1 277 934 938
1035 2 2 5 1 435 804 840
1036 2 2 5 1 436 450 625
1037 2 2 5 1 433 432 795
1038 2 2 5 1 545 578 836
1039 2 2 5 1 251 252 254
1040 2 2 5 1 396 410 830
1041 2 2 5 1 851 422 852
1042 2 2 5 1 600 606 607
1043 2 2 5 1 274 275 276
1044 2 2 5 1 443 509 510
1045 2 2 5 1 299 300 301
1046 2 2 5 1 236 235 241
1047 2 2 5 1 602 496 644
1048 2 2 5 1 297 298 299
1049 2 2 5 1 281 290 291
1050 2 2 5 1 444 445 539
1051 2 2 5 1 353 415 498
1052 2 2 5 1 347 346 357
1053 2 2 5 1 276 280 281
1054 2 2 5 1 351 297 789
1055 2 2 5 1 768 858 884
1056 2 2 5 1 234 233 235
1057 2 2 5 1 431 442 443
1058 2 2 5 1 156 143 658
1059 2 2 5 1 103 104 154
1060 2 2 5 1 41 42 155
1061 2 2 5 1 104 105 832
1062 2 2 5 1 40 41 835
1063 2 2 5 1 105 106 197
1064 2 2 5 1 39 40 198
1065 2 2 5 1 106 107 834
1066 2 2 5 1 107 108 161
1067 2 2 5 1 37 38 160
1068 2 2 5 1 432 532 795
1069 2 2 5 1 248 251 829
1070 2 2 5 1 293 294 295
1071 2 2 5 1 353 498 841
1072 2 2 5 1 88 89 857
1073 2 2 5 1 525 772 838
1074 2 2 5 1 320 323 831
1075 2 2 5 1 413 430 431
1076 2 2 5 1 307 305 308
1077 2 2 5 1 463 465 466
1078 2 2 5 1 326 330 489
1079 2 2 5 1 368 432 433
1080 2 2 5 1 329 332 882
1081 2 2 5 1 319 317 321
1082 2 2 5 1 311 309 312
1083 2 2 5 1 315 313 316
1084 2 2 5 1 126 125 656
1085 2 2 5 1 154 104 832
1086 2 2 5 1 41 155 835
1087 2 2 5 1 105 197 832
1088 2 2 5 1 198 40 835
1089 2 2 5 1 197 106 834
1090 2 2 5 1 107 161 834
1091 2 2 5 1 700 453 840
1092 2 2 5 1 706 354 954
1093 2 2 5 1 248 250 251
1094 2 2 5 1 701 895 898
1095 2 2 5 1 308 756 892
1096 2 2 5 1 217 216 218
1097 2 2 5 1 630 629 631
1098 2 2 5 1 405 412 413
1099 2 2 5 1 211 210 212
1100 2 2 5 1 393 381 823
1101 2 2 5 1 269 242 271
1102 2 2 5 1 319 321 826
1103 2 2 5 1 665 666 667
1104 2 2 5 1 348 367 368
1105 2 2 5 1 225 223 240
1106 2 2 5 1 651 652 653
1107 2 2 5 1 215 214 216
1108 2 2 5 1 244 245 247
1109 2 2 5 1 238 239 244
1110 2 2 5 1 580 502 802
1111 2 2 5 1 219 218 246
1112 2 2 5 1 364 404 405
1113 2 2 5 1 518 852 899
1114 2 2 5 1 625 626 703
1115 2 2 5 1 519 492 521
1116 2 2 5 1 595 594 596
1117 2 2 5 1 42 43 833
1118 2 2 5 1 303 301 304
1119 2 2 5 1 330 327 881
1120 2 2 5 1 242 241 822
1121 2 2 5 1 370 287 821
1122 2 2 5 1 437 435 840
1123 2 2 5 1 779 780 839
1124 2 2 5 1 323 326 831
1125 2 2 5 1 458 460 860
1126 2 2 5 1 271 242 822
1127 2 2 5 1 230 232 238
1128 2 2 5 1 426 427 428
1129 2 2 5 1 284 363 364
1130 2 2 5 1 326 489 831
1131 2 2 5 1 388 390 392
1132 2 2 5 1 496 472 827
1133 2 2 5 1 760 888 893
1134 2 2 5 1 586 584 587
1135 2 2 5 1 481 479 567
1136 2 2 5 1 381 382 383
1137 2 2 5 1 155 42 833
1138 2 2 5 1 533 448 579
1139 2 2 5 1 231 229 233
1140 2 2 5 1 593 521 594
1141 2 2 5 1 220 222 504
1142 2 2 5 1 401 423 424
1143 2 2 5 1 417 362 418
1144 2 2 5 1 322 319 826
1145 2 2 5 1 502 503 802
1146 2 2 5 1 217 218 219
1147 2 2 5 1 477 351 789
1148 2 2 5 1 502 501 503
1149 2 2 5 1 243 270 518
1150 2 2 5 1 373 337 374
1151 2 2 5 1 500 499 501
1152 2 2 5 1 213 212 214
1153 2 2 5 1 482 362 847
1154 2 2 5 1 716 718 719
1155 2 2 5 1 260 259 261
1156 2 2 5 1 258 257 259
1157 2 2 5 1 668 667 669
1158 2 2 5 1 385 386 387
1159 2 2 5 1 361 283 362
1160 2 2 5 1 224 226 279
1161 2 2 5 1 262 261 263
1162 2 2 5 1 297 295 298
1163 2 2 5 1 490 247 829
1164 2 2 5 1 548 547 558
1165 2 2 5 1 498 415 499
1166 2 2 5 1 215 216 217
1167 2 2 5 1 732 561 898
1168 2 2 5 1 264 263 265
1169 2 2 5 1 256 255 257
1170 2 2 5 1 163 127 661
1171 2 2 5 1 542 541 543
1172 2 2 5 1 588 587 589
1173 2 2 5 1 141 140 162
1174 2 2 5 1 128 127 163
1175 2 2 5 1 590 589 609
1176 2 2 5 1 266 265 267
1177 2 2 5 1 293 291 294
1178 2 2 5 1 582 581 583
1179 2 2 5 1 268 267 273
1180 2 2 5 1 610 609 617
1181 2 2 5 1 395 400 401
1182 2 2 5 1 274 273 275
1183 2 2 5 1 644 496 827
1184 2 2 5 1 618 617 619
1185 2 2 5 1 254 252 255
1186 2 2 5 1 506 505 516
1187 2 2 5 1 474 370 821
1188 2 2 5 1 546 544 547
1189 2 2 5 1 299 298 300
1190 2 2 5 1 561 453 700
1191 2 2 5 1 253 249 524
1192 2 2 5 1 495 393 823
1193 2 2 5 1 383 384 385
1194 2 2 5 1 364 422 851
1195 2 2 5 1 510 509 581
1196 2 2 5 1 129 128 662
1197 2 2 5 1 822 286 859
1198 2 2 5 1 860 636 903
1199 2 2 5 1 140 139 672
1200 2 2 5 1 483 485 486
1201 2 2 5 1 357 406 818
1202 2 2 5 1 447 449 576
1203 2 2 5 1 414 352 505
1204 2 2 5 1 767 227 858
1205 2 2 5 1 542 544 545
1206 2 2 5 1 545 546 549
1207 2 2 5 1 251 250 252
1208 2 2 5 1 130 129 185
1209 2 2 5 1 139 138 186
1210 2 2 5 1 133 132 171
1211 2 2 5 1 136 135 170
1212 2 2 5 1 43 44 849
1213 2 2 5 1 281 280 290
1214 2 2 5 1 443 442 509
1215 2 2 5 1 492 490 837
1216 2 2 5 1 447 576 889
1217 2 2 5 1 333 331 339
1218 2 2 5 1 276 275 280
1219 2 2 5 1 654 653 655
1220 2 2 5 1 132 131 686
1221 2 2 5 1 222 221 223
1222 2 2 5 1 345 322 826
1223 2 2 5 1 431 430 442
1224 2 2 5 1 131 130 663
1225 2 2 5 1 641 517 702
1226 2 2 5 1 651 653 654
1227 2 2 5 1 487 603 605
1228 2 2 5 1 534 533 541
1229 2 2 5 1 419 369 420
1230 2 2 5 1 209 210 211
1231 2 2 5 1 381 379 382
1232 2 2 5 1 654 655 707
1233 2 2 5 1 301 300 841
1234 2 2 5 1 413 412 430
1235 2 2 5 1 224 223 225
1236 2 2 5 1 222 223 224
1237 2 2 5 1 217 219 220
1238 2 2 5 1 247 245 248
1239 2 2 5 1 220 219 221
1240 2 2 5 1 542 543 544
1241 2 2 5 1 244 239 245
1242 2 2 5 1 213 214 215
1243 2 2 5 1 733 762 904
1244 2 2 5 1 584 583 828
1245 2 2 5 1 220 221 222
1246 2 2 5 1 374 337 762
1247 2 2 5 1 238 232 239
1248 2 2 5 1 291 290 845
1249 2 2 5 1 546 547 548
1250 2 2 5 1 247 248 829
1251 2 2 5 1 449 448 533
1252 2 2 5 1 372 474 880
1253 2 2 5 1 507 433 564
1254 2 2 5 1 859 507 883
1255 2 2 5 1 521 492 837
1256 2 2 5 1 234 235 236
1257 2 2 5 1 405 404 412
1258 2 2 5 1 534 541 542
1259 2 2 5 1 545 544 546
1260 2 2 5 1 186 138 670
1261 2 2 5 1 822 859 883
1262 2 2 5 1 225 240 858
1263 2 2 5 1 467 397 880
1264 2 2 5 1 170 135 673
1265 2 2 5 1 459 456 732
1266 2 2 5 1 231 233 234
1267 2 2 5 1 364 363 404
1268 2 2 5 1 236 241 242
1269 2 2 5 1 298 295 855
1270 2 2 5 1 224 225 226
1271 2 2 5 1 490 829 837
1272 2 2 5 1 548 558 568
1273 2 2 5 1 286 348 859
1274 2 2 5 1 596 594 760
1275 2 2 5 1 348 368 859
1276 2 2 5 1 833 43 849
1277 2 2 5 1 99 100 848
1278 2 2 5 1 536 598 601
1279 2 2 5 1 455 457 879
1280 2 2 5 1 449 533 534
1281 2 2 5 1 100 101 174
1282 2 2 5 1 44 45 175
1283 2 2 5 1 300 353 841
1284 2 2 5 1 479 477 842
1285 2 2 5 1 425 424 426
1286 2 2 5 1 295 294 855
1287 2 2 5 1 213 215 288
1288 2 2 5 1 368 433 507
1289 2 2 5 1 220 504 850
1290 2 2 5 1 414 505 506
1291 2 2 5 1 375 374 376
1292 2 2 5 1 300 352 353
1293 2 2 5 1 253 524 574
1294 2 2 5 1 304 301 841
1295 2 2 5 1 506 517 640
1296 2 2 5 1 353 414 415
1297 2 2 5 1 506 516 517
1298 2 2 5 1 642 441 643
1299 2 2 5 1 342 778 909
1300 2 2 5 1 300 298 352
1301 2 2 5 1 524 249 869
1302 2 2 5 1 447 448 449
1303 2 2 5 1 514 512 897
1304 2 2 5 1 361 362 417
1305 2 2 5 1 294 291 845
1306 2 2 5 1 499 415 529
1307 2 2 5 1 425 441 508
1308 2 2 5 1 253 574 787
1309 2 2 5 1 290 369 402
1310 2 2 5 1 305 304 878
1311 2 2 5 1 402 419 540
1312 2 2 5 1 226 225 227
1313 2 2 5 1 587 584 828
1314 2 2 5 1 523 552 634
1315 2 2 5 1 598 600 854
1316 2 2 5 1 377 376 444
1317 2 2 5 1 477 789 842
1318 2 2 5 1 503 501 592
1319 2 2 5 1 243 518 874
1320 2 2 5 1 257 255 277
1321 2 2 5 1 463 461 465
1322 2 2 5 1 669 667 685
1323 2 2 5 1 576 449 853
1324 2 2 5 1 730 731 871
1325 2 2 5 1 239 232 398
1326 2 2 5 1 567 479 842
1327 2 2 5 1 534 836 853
1328 2 2 5 1 248 249 250
1329 2 2 5 1 263 261 282
1330 2 2 5 1 394 409 438
1331 2 2 5 1 417 418 554
1332 2 2 5 1 426 428 846
1333 2 2 5 1 581 509 675
1334 2 2 5 1 609 589 612
1335 2 2 5 1 508 642 687
1336 2 2 5 1 248 245 249
1337 2 2 5 1 557 556 608
1338 2 2 5 1 394 391 395
1339 2 2 5 1 353 352 414
1340 2 2 5 1 290 280 369
1341 2 2 5 1 304 801 878
1342 2 2 5 1 273 267 354
1343 2 2 5 1 215 217 850
1344 2 2 5 1 947 596 986
1345 2 2 5 1 438 560 629
1346 2 2 5 1 290 402 845
1347 2 2 5 1 254 256 893
1348 2 2 5 1 442 430 613
1349 2 2 5 1 383 382 384
1350 2 2 5 1 447 446 448
1351 2 2 5 1 640 517 641
1352 2 2 5 1 230 231 232
1353 2 2 5 1 226 227 228
1354 2 2 5 1 228 229 230
1355 2 2 5 1 392 390 866
1356 2 2 5 1 250 249 253
1357 2 2 5 1 390 389 391
1358 2 2 5 1 819 476 875
1359 2 2 5 1 401 424 425
1360 2 2 5 1 379 345 873
1361 2 2 5 1 540 419 563
1362 2 2 5 1 402 369 419
1363 2 2 5 1 211 212 213
1364 2 2 5 1 418 483 844
1365 2 2 5 1 352 298 855
1366 2 2 5 1 404 363 538
1367 2 2 5 1 387 386 388
1368 2 2 5 1 284 361 363
1369 2 2 5 1 384 382 511
1370 2 2 5 1 230 229 231
1371 2 2 5 1 513 512 514
1372 2 2 5 1 228 227 229
1373 2 2 5 1 270 283 284
1374 2 2 5 1 97 98 187
1375 2 2 5 1 47 48 188
1376 2 2 5 1 340 336 754
1377 2 2 5 1 388 386 389
1378 2 2 5 1 228 793 876
1379 2 2 5 1 888 289 893
1380 2 2 5 1 385 384 386
1381 2 2 5 1 417 554 555
1382 2 2 5 1 377 446 447
1383 2 2 5 1 505 352 855
1384 2 2 5 1 425 426 441
1385 2 2 5 1 243 269 270
1386 2 2 5 1 243 242 269
1387 2 2 5 1 368 507 859
1388 2 2 5 1 555 623 692
1389 2 2 5 1 236 242 243
1390 2 2 5 1 270 269 283
1391 2 2 5 1 449 534 853
1392 2 2 5 1 217 220 850
1393 2 2 5 1 284 283 361
1394 2 2 5 1 552 528 571
1395 2 2 5 1 288 215 850
1396 2 2 5 1 377 444 446
1397 2 2 5 1 508 441 642
1398 2 2 5 1 227 225 858
1399 2 2 5 1 555 554 623
1400 2 2 5 1 714 713 932
1401 2 2 5 1 796 455 879
1402 2 2 5 1 634 552 676
1403 2 2 5 1 280 275 862
1404 2 2 5 1 252 250 856
1405 2 2 5 1 394 395 409
1406 2 2 5 1 554 418 844
1407 2 2 5 1 388 389 390
1408 2 2 5 1 420 369 862
1409 2 2 5 1 468 469 470
1410 2 2 5 1 636 635 637
1411 2 2 5 1 335 337 373
1412 2 2 5 1 438 409 560
1413 2 2 5 1 358 357 818
1414 2 2 5 1 44 175 849
1415 2 2 5 1 516 505 887
1416 2 2 5 1 345 826 873
1417 2 2 5 1 390 391 394
1418 2 2 5 1 601 598 854
1419 2 2 5 1 382 379 873
1420 2 2 5 1 441 426 846
1421 2 2 5 1 327 329 881
1422 2 2 5 1 476 536 875
1423 2 2 5 1 501 499 861
1424 2 2 5 1 643 441 846
1425 2 2 5 1 373 374 375
1426 2 2 5 1 309 308 892
1427 2 2 5 1 375 376 377
1428 2 2 5 1 776 282 945
1429 2 2 5 1 279 226 876
1430 2 2 5 1 483 486 844
1431 2 2 5 1 395 401 865
1432 2 2 5 1 12 13 165
1433 2 2 5 1 22 23 164
1434 2 2 5 1 250 253 856
1435 2 2 5 1 253 787 856
1436 2 2 5 1 357 366 406
1437 2 2 5 1 415 414 863
1438 2 2 5 1 529 415 863
1439 2 2 5 1 506 640 863
1440 2 2 5 1 457 572 879
1441 2 2 5 1 523 528 552
1442 2 2 5 1 398 232 864
1443 2 2 5 1 406 452 556
1444 2 2 5 1 497 602 950
1445 2 2 5 1 414 506 863
1446 2 2 5 1 100 174 848
1447 2 2 5 1 509 442 870
1448 2 2 5 1 499 529 861
1449 2 2 5 1 226 228 876
1450 2 2 5 1 394 438 866
1451 2 2 5 1 369 280 862
1452 2 2 5 1 232 231 864
1453 2 2 5 1 231 234 864
1454 2 2 5 1 592 501 861
1455 2 2 5 1 397 372 880
1456 2 2 5 1 245 239 869
1457 2 2 5 1 308 305 878
1458 2 2 5 1 523 522 528
1459 2 2 5 1 409 395 865
1460 2 2 5 1 452 366 522
1461 2 2 5 1 511 382 873
1462 2 2 5 1 464 635 636
1463 2 2 5 1 239 398 869
1464 2 2 5 1 373 375 569
1465 2 2 5 1 837 289 888
1466 2 2 5 1 536 601 875
1467 2 2 5 1 675 509 870
1468 2 2 5 1 425 508 865
1469 2 2 5 1 249 245 869
1470 2 2 5 1 442 613 870
1471 2 2 5 1 538 363 872
1472 2 2 5 1 406 366 452
1473 2 2 5 1 760 594 888
1474 2 2 5 1 363 361 872
1475 2 2 5 1 905 321 912
1476 2 2 5 1 521 837 888
1477 2 2 5 1 234 236 874
1478 2 2 5 1 401 425 865
1479 2 2 5 1 361 417 872
1480 2 2 5 1 209 211 639
1481 2 2 5 1 876 792 906
1482 2 2 5 1 936 310 944
1483 2 2 5 1 457 566 572
1484 2 2 5 1 417 555 872
1485 2 2 5 1 855 294 887
1486 2 2 5 1 236 243 874
1487 2 2 5 1 452 522 523
1488 2 2 5 1 390 394 866
1489 2 2 5 1 357 346 366
1490 2 2 5 1 594 521 888
1491 2 2 5 1 13 14 867
1492 2 2 5 1 21 22 868
1493 2 2 5 1 389 386 877
1494 2 2 5 1 614 514 843
1495 2 2 5 1 864 234 874
1496 2 2 5 1 549 913 937
1497 2 2 5 1 636 638 903
1498 2 2 5 1 384 511 877
1499 2 2 5 1 459 732 895
1500 2 2 5 1 466 465 684
1501 2 2 5 1 900 540 902
1502 2 2 5 1 294 845 887
1503 2 2 5 1 470 512 513
1504 2 2 5 1 515 514 614
1505 2 2 5 1 858 240 884
1506 2 2 5 1 271 822 883
1507 2 2 5 1 508 687 896
1508 2 2 5 1 402 540 900
1509 2 2 5 1 330 881 911
1510 2 2 5 1 332 335 882
1511 2 2 5 1 523 634 886
1512 2 2 5 1 386 384 877
1513 2 2 5 1 24 25 890
1514 2 2 5 1 505 855 887
1515 2 2 5 1 289 254 893
1516 2 2 5 1 312 309 892
1517 2 2 5 1 377 447 889
1518 2 2 5 1 409 865 896
1519 2 2 5 1 616 551 678
1520 2 2 5 1 512 621 897
1521 2 2 5 1 684 465 701
1522 2 2 5 1 14 15 199
1523 2 2 5 1 20 21 200
1524 2 2 5 1 901 306 936
1525 2 2 5 1 702 517 902
1526 2 2 5 1 556 452 886
1527 2 2 5 1 408 358 818
1528 2 2 5 1 373 569 882
1529 2 2 5 1 346 340 885
1530 2 2 5 1 335 373 882
1531 2 2 5 1 516 887 900
1532 2 2 5 1 577 525 912
1533 2 2 5 1 354 706 957
1534 2 2 5 1 865 508 896
1535 2 2 5 1 754 343 907
1536 2 2 5 1 673 925 1080
1537 2 2 5 1 826 321 905
1538 2 2 5 1 922 312 933
1539 2 2 5 1 803 314 913
1540 2 2 5 1 375 377 889
1541 2 2 5 1 452 523 886
1542 2 2 5 1 9 10 189
1543 2 2 5 1 25 26 190
1544 2 2 5 1 573 800 916
1545 2 2 5 1 569 375 889
1546 2 2 5 1 461 459 895
1547 2 2 5 1 366 346 885
1548 2 2 5 1 522 366 885
1549 2 2 5 1 571 917 920
1550 2 2 5 1 330 911 921
1551 2 2 5 1 513 514 515
1552 2 2 5 1 899 852 910
1553 2 2 5 1 560 409 896
1554 2 2 5 1 917 799 920
1555 2 2 5 1 711 497 920
1556 2 2 5 1 165 13 867
1557 2 2 5 1 22 164 868
1558 2 2 5 1 887 845 900
1559 2 2 5 1 636 637 638
1560 2 2 5 1 522 885 907
1561 2 2 5 1 874 518 899
1562 2 2 5 1 26 27 891
1563 2 2 5 1 340 754 885
1564 2 2 5 1 516 900 902
1565 2 2 5 1 885 754 907
1566 2 2 5 1 398 864 899
1567 2 2 5 1 864 874 899
1568 2 2 5 1 566 860 903
1569 2 2 5 1 845 402 900
1570 2 2 5 1 515 614 624
1571 2 2 5 1 465 461 895
1572 2 2 5 1 317 316 914
1573 2 2 5 1 470 513 527
1574 2 2 5 1 282 776 946
1575 2 2 5 1 802 503 1084
1576 2 2 5 1 838 905 912
1577 2 2 5 1 551 466 894
1578 2 2 5 1 577 914 916
1579 2 2 5 1 622 480 923
1580 2 2 5 1 466 684 894
1581 2 2 5 1 701 465 895
1582 2 2 5 1 762 342 904
1583 2 2 5 1 405 413 918
1584 2 2 5 1 838 511 905
1585 2 2 5 1 572 761 967
1586 2 2 5 1 14 199 867
1587 2 2 5 1 200 21 868
1588 2 2 5 1 517 516 902
1589 2 2 5 1 698 575 953
1590 2 2 5 1 169 828 1069
1591 2 2 5 1 596 764 986
1592 2 2 5 1 524 910 915
1593 2 2 5 1 679 660 1061
1594 2 2 5 1 398 899 910
1595 2 2 5 1 541 972 973
1596 2 2 5 1 204 30 956
1597 2 2 5 1 678 551 894
1598 2 2 5 1 580 802 952
1599 2 2 5 1 511 873 905
1600 2 2 5 1 524 869 910
1601 2 2 5 1 507 564 908
1602 2 2 5 1 873 826 905
1603 2 2 5 1 489 330 921
1604 2 2 5 1 883 507 908
1605 2 2 5 1 25 190 890
1606 2 2 5 1 313 312 922
1607 2 2 5 1 753 883 908
1608 2 2 5 1 279 876 906
1609 2 2 5 1 277 725 941
1610 2 2 5 1 710 527 939
1611 2 2 5 1 927 633 928
1612 2 2 5 1 528 522 907
1613 2 2 5 1 778 468 909
1614 2 2 5 1 344 831 931
1615 2 2 5 1 756 580 949
1616 2 2 5 1 836 578 929
1617 2 2 5 1 16 17 688
1618 2 2 5 1 929 578 931
1619 2 2 5 1 770 769 938
1620 2 2 5 1 910 852 915
1621 2 2 5 1 343 799 917
1622 2 2 5 1 715 716 935
1623 2 2 5 1 532 531 924
1624 2 2 5 1 934 771 938
1625 2 2 5 1 856 771 934
1626 2 2 5 1 824 344 937
1627 2 2 5 1 607 699 959
1628 2 2 5 1 862 957 964
1629 2 2 5 1 190 26 891
1630 2 2 5 1 889 576 911
1631 2 2 5 1 881 569 911
1632 2 2 5 1 869 398 910
1633 2 2 5 1 549 546 930
1634 2 2 5 1 597 535 940
1635 2 2 5 1 681 504 1005
1636 2 2 5 1 49 50 1029
1637 2 2 5 1 349 854 959
1638 2 2 5 1 569 889 911
1639 2 2 5 1 344 931 937
1640 2 2 5 1 911 576 921
1641 2 2 5 1 531 774 924
1642 2 2 5 1 31 182 956
1643 2 2 5 1 314 824 913
1644 2 2 5 1 907 343 917
1645 2 2 5 1 577 912 914
1646 2 2 5 1 470 527 909
1647 2 2 5 1 468 470 909
1648 2 2 5 1 277 255 934
1649 2 2 5 1 803 913 930
1650 2 2 5 1 699 365 962
1651 2 2 5 1 528 907 917
1652 2 2 5 1 588 776 945
1653 2 2 5 1 525 838 912
1654 2 2 5 1 252 856 934
1655 2 2 5 1 520 519 943
1656 2 2 5 1 591 586 945
1657 2 2 5 1 310 803 944
1658 2 2 5 1 321 317 914
1659 2 2 5 1 489 921 929
1660 2 2 5 1 574 915 918
1661 2 2 5 1 949 580 952
1662 2 2 5 1 573 922 933
1663 2 2 5 1 307 310 936
1664 2 2 5 1 574 524 915
1665 2 2 5 1 747 745 926
1666 2 2 5 1 707 494 966
1667 2 2 5 1 392 747 926
1668 2 2 5 1 799 711 920
1669 2 2 5 1 852 422 915
1670 2 2 5 1 915 422 918
1671 2 2 5 1 800 577 916
1672 2 2 5 1 257 277 941
1673 2 2 5 1 977 184 1074
1674 2 2 5 1 178 815 958
1675 2 2 5 1 618 706 954
1676 2 2 5 1 611 610 954
1677 2 2 5 1 282 261 942
1678 2 2 5 1 422 405 918
1679 2 2 5 1 713 550 932
1680 2 2 5 1 206 748 927
1681 2 2 5 1 571 528 917
1682 2 2 5 1 195 788 1015
1683 2 2 5 1 775 830 955
1684 2 2 5 1 316 313 922
1685 2 2 5 1 573 916 922
1686 2 2 5 1 913 549 930
1687 2 2 5 1 263 282 946
1688 2 2 5 1 918 413 919
1689 2 2 5 1 787 574 919
1690 2 2 5 1 480 562 923
1691 2 2 5 1 576 853 921
1692 2 2 5 1 354 267 951
1693 2 2 5 1 155 833 924
1694 2 2 5 1 926 743 978
1695 2 2 5 1 803 930 944
1696 2 2 5 1 912 321 914
1697 2 2 5 1 526 573 933
1698 2 2 5 1 568 936 944
1699 2 2 5 1 134 133 925
1700 2 2 5 1 273 354 957
1701 2 2 5 1 862 275 957
1702 2 2 5 1 664 185 947
1703 2 2 5 1 527 513 939
1704 2 2 5 1 489 929 931
1705 2 2 5 1 546 548 930
1706 2 2 5 1 853 836 929
1707 2 2 5 1 921 853 929
1708 2 2 5 1 600 607 959
1709 2 2 5 1 831 489 931
1710 2 2 5 1 268 349 962
1711 2 2 5 1 365 266 962
1712 2 2 5 1 255 252 934
1713 2 2 5 1 111 112 961
1714 2 2 5 1 931 578 937
1715 2 2 5 1 571 920 950
1716 2 2 5 1 761 33 967
1717 2 2 5 1 430 412 960
1718 2 2 5 1 771 770 938
1719 2 2 5 1 916 316 922
1720 2 2 5 1 578 549 937
1721 2 2 5 1 716 719 935
1722 2 2 5 1 312 892 933
1723 2 2 5 1 574 918 919
1724 2 2 5 1 34 177 967
1725 2 2 5 1 494 493 966
1726 2 2 5 1 562 696 1062
1727 2 2 5 1 930 548 944
1728 2 2 5 1 535 537 940
1729 2 2 5 1 612 589 963
1730 2 2 5 1 587 828 963
1731 2 2 5 1 568 901 936
1732 2 2 5 1 658 659 1076
1733 2 2 5 1 520 943 1040
1734 2 2 5 1 45 46 965
1735 2 2 5 1 997 676 1067
1736 2 2 5 1 259 257 941
1737 2 2 5 1 179 702 980
1738 2 2 5 1 513 515 939
1739 2 2 5 1 407 408 968
1740 2 2 5 1 519 593 943
1741 2 2 5 1 261 259 942
1742 2 2 5 1 259 941 942
1743 2 2 5 1 957 706 964
1744 2 2 5 1 586 588 945
1745 2 2 5 1 920 497 950
1746 2 2 5 1 659 683 1076
1747 2 2 5 1 548 568 944
1748 2 2 5 1 984 810 1006
1749 2 2 5 1 541 533 972
1750 2 2 5 1 174 984 1006
1751 2 2 5 1 27 28 969
1752 2 2 5 1 265 263 946
1753 2 2 5 1 612 820 998
1754 2 2 5 1 387 978 999
1755 2 2 5 1 850 504 971
1756 2 2 5 1 265 946 951
1757 2 2 5 1 446 689 1052
1758 2 2 5 1 267 265 951
1759 2 2 5 1 526 933 949
1760 2 2 5 1 428 526 952
1761 2 2 5 1 939 515 953
1762 2 2 5 1 610 618 954
1763 2 2 5 1 892 756 949
1764 2 2 5 1 365 685 1032
1765 2 2 5 1 830 553 955
1766 2 2 5 1 187 737 1012
1767 2 2 5 1 526 949 952
1768 2 2 5 1 49 928 1039
1769 2 2 5 1 408 750 1009
1770 2 2 5 1 19 20 974
1771 2 2 5 1 515 624 953
1772 2 2 5 1 816 178 958
1773 2 2 5 1 64 195 975
1774 2 2 5 1 159 63 975
1775 2 2 5 1 933 892 949
1776 2 2 5 1 906 792 983
1777 2 2 5 1 275 273 957
1778 2 2 5 1 30 31 956
1779 2 2 5 1 764 763 979
1780 2 2 5 1 655 906 983
1781 2 2 5 1 943 661 1040
1782 2 2 5 1 729 721 1007
1783 2 2 5 1 695 538 1085
1784 2 2 5 1 616 678 1056
1785 2 2 5 1 605 927 990
1786 2 2 5 1 644 827 976
1787 2 2 5 1 706 620 964
1788 2 2 5 1 387 388 978
1789 2 2 5 1 790 494 983
1790 2 2 5 1 579 970 972
1791 2 2 5 1 679 654 1030
1792 2 2 5 1 846 981 1025
1793 2 2 5 1 972 156 973
1794 2 2 5 1 687 712 982
1795 2 2 5 1 604 724 1010
1796 2 2 5 1 152 692 1057
1797 2 2 5 1 854 600 959
1798 2 2 5 1 101 102 984
1799 2 2 5 1 846 428 981
1800 2 2 5 1 540 563 980
1801 2 2 5 1 1 7 1043
1802 2 2 5 1 116 1 1043
1803 2 2 5 1 36 703 991
1804 2 2 5 1 1015 788 1069
1805 2 2 5 1 740 187 1031
1806 2 2 5 1 678 416 1056
1807 2 2 5 1 613 430 960
1808 2 2 5 1 176 111 961
1809 2 2 5 1 702 902 980
1810 2 2 5 1 896 687 982
1811 2 2 5 1 192 759 990
1812 2 2 5 1 965 46 1083
1813 2 2 5 1 702 179 1017
1814 2 2 5 1 266 268 962
1815 2 2 5 1 589 587 963
1816 2 2 5 1 960 695 1023
1817 2 2 5 1 890 714 994
1818 2 2 5 1 177 35 991
1819 2 2 5 1 844 758 1024
1820 2 2 5 1 420 862 964
1821 2 2 5 1 985 562 1062
1822 2 2 5 1 543 541 973
1823 2 2 5 1 646 166 995
1824 2 2 5 1 112 113 992
1825 2 2 5 1 493 520 966
1826 2 2 5 1 175 45 965
1827 2 2 5 1 746 632 1079
1828 2 2 5 1 761 572 1020
1829 2 2 5 1 717 203 1043
1830 2 2 5 1 843 199 988
1831 2 2 5 1 529 726 989
1832 2 2 5 1 440 407 968
1833 2 2 5 1 110 176 997
1834 2 2 5 1 33 34 967
1835 2 2 5 1 199 15 988
1836 2 2 5 1 694 1018 1023
1837 2 2 5 1 891 27 969
1838 2 2 5 1 682 162 985
1839 2 2 5 1 714 890 1041
1840 2 2 5 1 726 752 989
1841 2 2 5 1 145 144 970
1842 2 2 5 1 777 622 1003
1843 2 2 5 1 680 288 1060
1844 2 2 5 1 164 23 994
1845 2 2 5 1 683 543 1076
1846 2 2 5 1 703 626 991
1847 2 2 5 1 820 68 998
1848 2 2 5 1 69 180 998
1849 2 2 5 1 94 6 1046
1850 2 2 5 1 24 890 994
1851 2 2 5 1 6 95 1046
1852 2 2 5 1 288 850 971
1853 2 2 5 1 927 748 990
1854 2 2 5 1 632 631 1079
1855 2 2 5 1 622 923 1075
1856 2 2 5 1 559 547 1001
1857 2 2 5 1 16 688 988
1858 2 2 5 1 173 56 1004
1859 2 2 5 1 533 579 972
1860 2 2 5 1 752 194 989
1861 2 2 5 1 4 29 1047
1862 2 2 5 1 544 543 1001
1863 2 2 5 1 723 565 993
1864 2 2 5 1 952 802 981
1865 2 2 5 1 156 658 973
1866 2 2 5 1 28 4 1047
1867 2 2 5 1 736 205 1046
1868 2 2 5 1 633 603 1010
1869 2 2 5 1 224 279 1005
1870 2 2 5 1 504 222 1005
1871 2 2 5 1 694 152 1018
1872 2 2 5 1 717 8 1011
1873 2 2 5 1 724 965 1083
1874 2 2 5 1 655 653 1008
1875 2 2 5 1 923 186 1075
1876 2 2 5 1 152 59 1018
1877 2 2 5 1 530 714 1041
1878 2 2 5 1 179 76 1017
1879 2 2 5 1 60 193 1018
1880 2 2 5 1 978 743 999
1881 2 2 5 1 572 566 1020
1882 2 2 5 1 924 774 1000
1883 2 2 5 1 189 718 1011
1884 2 2 5 1 689 674 1052
1885 2 2 5 1 20 200 974
1886 2 2 5 1 581 675 1015
1887 2 2 5 1 264 365 1032
1888 2 2 5 1 667 666 1019
1889 2 2 5 1 355 262 1032
1890 2 2 5 1 810 807 1028
1891 2 2 5 1 906 655 1008
1892 2 2 5 1 728 729 1063
1893 2 2 5 1 554 844 1024
1894 2 2 5 1 1013 960 1023
1895 2 2 5 1 155 924 1000
1896 2 2 5 1 794 158 1036
1897 2 2 5 1 928 633 1039
1898 2 2 5 1 213 288 1026
1899 2 2 5 1 809 811 1038
1900 2 2 5 1 99 848 1031
1901 2 2 5 1 486 487 1033
1902 2 2 5 1 827 812 976
1903 2 2 5 1 187 98 1031
1904 2 2 5 1 639 211 1026
1905 2 2 5 1 419 420 1034
1906 2 2 5 1 597 940 1016
1907 2 2 5 1 981 785 1025
1908 2 2 5 1 392 926 978
1909 2 2 5 1 48 49 1039
1910 2 2 5 1 63 64 975
1911 2 2 5 1 58 152 1057
1912 2 2 5 1 78 168 1068
1913 2 2 5 1 796 879 1048
1914 2 2 5 1 448 446 1052
1915 2 2 5 1 161 108 1067
1916 2 2 5 1 388 392 978
1917 2 2 5 1 652 650 1060
1918 2 2 5 1 617 609 1051
1919 2 2 5 1 47 188 1083
1920 2 2 5 1 150 149 977
1921 2 2 5 1 651 654 1061
1922 2 2 5 1 641 702 1017
1923 2 2 5 1 202 977 1050
1924 2 2 5 1 11 12 1059
1925 2 2 5 1 664 947 986
1926 2 2 5 1 758 173 1024
1927 2 2 5 1 763 355 979
1928 2 2 5 1 2 151 1042
1929 2 2 5 1 608 556 1055
1930 2 2 5 1 712 857 982
1931 2 2 5 1 792 790 983
1932 2 2 5 1 943 593 1022
1933 2 2 5 1 17 2 1042
1934 2 2 5 1 624 977 1074
1935 2 2 5 1 795 532 1053
1936 2 2 5 1 902 540 980
1937 2 2 5 1 940 170 1016
1938 2 2 5 1 560 896 982
1939 2 2 5 1 811 810 984
1940 2 2 5 1 174 101 984
1941 2 2 5 1 504 681 1081
1942 2 2 5 1 680 648 1073
1943 2 2 5 1 666 664 986
1944 2 2 5 1 989 194 1027
1945 2 2 5 1 736 96 1012
1946 2 2 5 1 202 688 1042
1947 2 2 5 1 97 187 1012
1948 2 2 5 1 890 190 1041
1949 2 2 5 1 788 169 1069
1950 2 2 5 1 486 1033 1077
1951 2 2 5 1 279 906 1008
1952 2 2 5 1 159 870 1065
1953 2 2 5 1 998 180 1051
1954 2 2 5 1 958 815 987
1955 2 2 5 1 428 952 981
1956 2 2 5 1 961 608 1055
1957 2 2 5 1 657 679 1030
1958 2 2 5 1 1006 810 1028
1959 2 2 5 1 971 652 1060
1960 2 2 5 1 51 206 1082
1961 2 2 5 1 641 1017 1068
1962 2 2 5 1 689 446 1054
1963 2 2 5 1 613 960 1013
1964 2 2 5 1 15 16 988
1965 2 2 5 1 666 979 1019
1966 2 2 5 1 613 1013 1065
1967 2 2 5 1 182 761 1020
1968 2 2 5 1 748 192 990
1969 2 2 5 1 8 9 1011
1970 2 2 5 1 950 602 996
1971 2 2 5 1 925 171 1071
1972 2 2 5 1 813 563 1078
1973 2 2 5 1 861 529 989
1974 2 2 5 1 35 36 991
1975 2 2 5 1 602 644 1037
1976 2 2 5 1 964 620 987
1977 2 2 5 1 113 181 992
1978 2 2 5 1 565 795 993
1979 2 2 5 1 10 11 1064
1980 2 2 5 1 976 812 1038
1981 2 2 5 1 990 759 1033
1982 2 2 5 1 23 24 994
1983 2 2 5 1 806 999 1028
1984 2 2 5 1 620 958 987
1985 2 2 5 1 9 189 1011
1986 2 2 5 1 166 689 995
1987 2 2 5 1 758 844 1077
1988 2 2 5 1 806 387 999
1989 2 2 5 1 631 751 1079
1990 2 2 5 1 560 982 1014
1991 2 2 5 1 974 200 1045
1992 2 2 5 1 982 857 1014
1993 2 2 5 1 628 201 1002
1994 2 2 5 1 420 964 987
1995 2 2 5 1 751 191 1079
1996 2 2 5 1 109 110 997
1997 2 2 5 1 721 189 1064
1998 2 2 5 1 988 688 1035
1999 2 2 5 1 999 744 1028
2000 2 2 5 1 177 991 1048
2001 2 2 5 1 444 539 1054
2002 2 2 5 1 196 690 1070
2003 2 2 5 1 96 97 1012
2004 2 2 5 1 774 775 1000
2005 2 2 5 1 184 698 1074
2006 2 2 5 1 68 69 998
2007 2 2 5 1 599 1016 1080
2008 2 2 5 1 743 744 999
2009 2 2 5 1 742 848 1049
2010 2 2 5 1 835 155 1000
2011 2 2 5 1 537 777 1003
2012 2 2 5 1 538 693 1085
2013 2 2 5 1 547 544 1001
2014 2 2 5 1 194 794 1027
2015 2 2 5 1 615 616 1044
2016 2 2 5 1 151 202 1042
2017 2 2 5 1 1007 11 1059
2018 2 2 5 1 559 682 1062
2019 2 2 5 1 861 989 1027
2020 2 2 5 1 1016 673 1080
2021 2 2 5 1 1023 695 1085
2022 2 2 5 1 694 1023 1085
2023 2 2 5 1 56 57 1004
2024 2 2 5 1 599 597 1016
2025 2 2 5 1 886 176 1055
2026 2 2 5 1 677 950 996
2027 2 2 5 1 222 224 1005
2028 2 2 5 1 719 720 1009
2029 2 2 5 1 844 486 1077
2030 2 2 5 1 718 717 1011
2031 2 2 5 1 968 408 1009
2032 2 2 5 1 653 681 1008
2033 2 2 5 1 737 736 1012
2034 2 2 5 1 814 813 1078
2035 2 2 5 1 603 604 1010
2036 2 2 5 1 698 953 1074
2037 2 2 5 1 849 175 1053
2038 2 2 5 1 969 204 1021
2039 2 2 5 1 629 560 1014
2040 2 2 5 1 696 559 1062
2041 2 2 5 1 654 707 1030
2042 2 2 5 1 193 786 1013
2043 2 2 5 1 857 172 1014
2044 2 2 5 1 870 613 1065
2045 2 2 5 1 583 581 1015
2046 2 2 5 1 76 77 1017
2047 2 2 5 1 59 60 1018
2048 2 2 5 1 170 673 1016
2049 2 2 5 1 834 996 1037
2050 2 2 5 1 109 997 1067
2051 2 2 5 1 643 846 1025
2052 2 2 5 1 685 667 1019
2053 2 2 5 1 744 742 1049
2054 2 2 5 1 593 595 1022
2055 2 2 5 1 638 637 1021
2056 2 2 5 1 1000 775 1066
2057 2 2 5 1 693 694 1085
2058 2 2 5 1 1003 622 1075
2059 2 2 5 1 785 784 1025
2060 2 2 5 1 623 554 1024
2061 2 2 5 1 835 1000 1066
2062 2 2 5 1 211 213 1026
2063 2 2 5 1 1004 57 1057
2064 2 2 5 1 807 806 1028
2065 2 2 5 1 629 1014 1058
2066 2 2 5 1 566 903 1020
2067 2 2 5 1 592 861 1027
2068 2 2 5 1 262 264 1032
2069 2 2 5 1 98 99 1031
2070 2 2 5 1 206 1029 1082
2071 2 2 5 1 446 444 1054
2072 2 2 5 1 1014 172 1058
2073 2 2 5 1 543 973 1076
2074 2 2 5 1 848 174 1049
2075 2 2 5 1 487 605 1033
2076 2 2 5 1 563 419 1034
2077 2 2 5 1 612 998 1051
2078 2 2 5 1 1013 786 1065
2079 2 2 5 1 203 116 1043
2080 2 2 5 1 672 923 1072
2081 2 2 5 1 29 204 1047
2082 2 2 5 1 158 783 1036
2083 2 2 5 1 643 1025 1070
2084 2 2 5 1 1017 77 1068
2085 2 2 5 1 614 843 1035
2086 2 2 5 1 925 606 1080
2087 2 2 5 1 583 1015 1069
2088 2 2 5 1 635 530 1041
2089 2 2 5 1 197 834 1037
2090 2 2 5 1 812 809 1038
2091 2 2 5 1 288 971 1060
2092 2 2 5 1 720 968 1009
2093 2 2 5 1 205 94 1046
2094 2 2 5 1 648 167 1073
2095 2 2 5 1 188 48 1039
2096 2 2 5 1 1025 784 1070
2097 2 2 5 1 614 1035 1050
2098 2 2 5 1 815 814 1078
2099 2 2 5 1 626 796 1048
2100 2 2 5 1 1033 759 1077
2101 2 2 5 1 843 988 1035
2102 2 2 5 1 1036 783 1084
2103 2 2 5 1 11 1007 1064
2104 2 2 5 1 200 868 1044
2105 2 2 5 1 624 614 1050
2106 2 2 5 1 609 612 1051
2107 2 2 5 1 5 51 1082
2108 2 2 5 1 579 448 1052
2109 2 2 5 1 605 990 1033
2110 2 2 5 1 688 17 1042
2111 2 2 5 1 189 10 1064
2112 2 2 5 1 969 28 1047
2113 2 2 5 1 979 355 1019
2114 2 2 5 1 977 624 1050
2115 2 2 5 1 191 746 1079
2116 2 2 5 1 172 751 1058
2117 2 2 5 1 751 631 1058
2118 2 2 5 1 775 955 1066
2119 2 2 5 1 176 961 1055
2120 2 2 5 1 539 995 1054
2121 2 2 5 1 621 728 1063
2122 2 2 5 1 57 58 1057
2123 2 2 5 1 650 680 1060
2124 2 2 5 1 786 159 1065
2125 2 2 5 1 649 651 1061
2126 2 2 5 1 631 629 1058
2127 2 2 5 1 556 886 1055
2128 2 2 5 1 759 758 1077
2129 2 2 5 1 12 165 1059
2130 2 2 5 1 784 196 1070
2131 2 2 5 1 108 109 1067
2132 2 2 5 1 77 78 1068
2133 2 2 5 1 198 835 1066
2134 2 2 5 1 828 583 1069
2135 2 2 5 1 50 5 1082
2136 2 2 5 1 171 948 1071
2137 2 2 5 1 991 626 1048
2138 2 2 5 1 606 599 1080
2139 2 2 5 1 783 785 1084
2140 2 2 5 1 681 652 1081
2141 2 2 5 1 186 670 1075
2142 2 2 5 1 46 47 1083
2143 2 2 5 1 971 504 1081
2144 2 2 5 1 744 1006 1028
2145 2 2 5 1 996 602 1037
2146 2 2 5 1 923 562 1072
2147 2 2 5 1 175 993 1053
2148 2 2 5 1 955 198 1066
2149 2 2 5 1 606 925 1071
2150 2 2 5 1 204 969 1047
2151 2 2 5 1 193 1013 1023
2152 2 2 5 1 953 624 1074
2153 2 2 5 1 682 985 1062
2154 2 2 5 1 1006 744 1049
2155 2 2 5 1 652 971 1081
2156 2 2 5 1 973 658 1076
2157 2 2 5 1 174 1006 1049
2158 2 2 5 1 670 1003 1075
2159 2 2 5 1 562 985 1072
2160 2 2 5 1 729 1007 1059
2161 2 2 5 1 993 795 1053
2162 2 2 5 1 995 689 1054
2163 2 2 5 1 1044 616 1045
2164 2 2 5 1 1034 815 1078
2165 2 2 5 1 200 1044 1045
2166 2 2 5 1 1007 721 1064
2167 2 2 5 1 1029 50 1082
2168 2 2 5 1 563 1034 1078
$EndElements
